<svg width="16" height="16" viewBox="0 0 16 16" fill="none" xmlns="http://www.w3.org/2000/svg">
<path d="M5.5 7.5C5.89782 7.5 6.27936 7.34196 6.56066 7.06066C6.84196 6.77936 7 6.39782 7 6C7 5.60218 6.84196 5.22064 6.56066 4.93934C6.27936 4.65804 5.89782 4.5 5.5 4.5C5.10218 4.5 4.72064 4.65804 4.43934 4.93934C4.15804 5.22064 4 5.60218 4 6C4 6.39782 4.15804 6.77936 4.43934 7.06066C4.72064 7.34196 5.10218 7.5 5.5 7.5ZM10.5 7.5C10.8978 7.5 11.2794 7.34196 11.5607 7.06066C11.842 6.77936 12 6.39782 12 6C12 5.60218 11.842 5.22064 11.5607 4.93934C11.2794 4.65804 10.8978 4.5 10.5 4.5C10.1022 4.5 9.72064 4.65804 9.43934 4.93934C9.15804 5.22064 9 5.60218 9 6C9 6.39782 9.15804 6.77936 9.43934 7.06066C9.72064 7.34196 10.1022 7.5 10.5 7.5ZM5.447 11.2235C5.549 11.02 6.23 10 8 10C9.77 10 10.451 11.02 10.5525 11.2235C10.6118 11.3422 10.7158 11.4325 10.8416 11.4745C10.9674 11.5165 11.1048 11.5068 11.2235 11.4475C11.3422 11.3882 11.4325 11.2842 11.4745 11.1584C11.5165 11.0326 11.5068 10.8952 11.4475 10.7765C11.215 10.3135 10.23 9 8 9C5.77 9 4.7845 10.3135 4.553 10.7765C4.52122 10.8354 4.5016 10.9002 4.4953 10.9668C4.48901 11.0335 4.49617 11.1007 4.51636 11.1646C4.53655 11.2284 4.56936 11.2876 4.61284 11.3385C4.65632 11.3894 4.70959 11.4311 4.76948 11.461C4.82938 11.491 4.89467 11.5086 4.9615 11.5128C5.02833 11.5171 5.09532 11.5078 5.15851 11.4857C5.22171 11.4635 5.2798 11.4289 5.32936 11.3839C5.37891 11.3388 5.41892 11.2843 5.447 11.2235Z" fill="#76615A"/>
<path d="M2.3815 2.7115C3.6565 1.327 5.5475 0.5 8 0.5C10.4525 0.5 12.343 1.327 13.6175 2.7115C14.886 4.089 15.4995 5.969 15.4995 7.9995C15.4995 10.03 14.886 11.9095 13.6175 13.2875C12.3425 14.672 10.452 15.499 8 15.499C5.548 15.499 3.657 14.672 2.382 13.2875C1.113 11.91 0.5 10.03 0.5 7.9995C0.5 5.969 1.113 4.089 2.3815 2.7115ZM3.1175 3.389C2.0525 4.5445 1.5 6.164 1.5 7.999C1.5 9.834 2.053 11.454 3.1175 12.61C4.1755 13.759 5.784 14.499 7.9995 14.499C10.215 14.499 11.8235 13.759 12.8815 12.61C13.946 11.4545 14.499 9.835 14.499 7.9995C14.499 6.1645 13.946 4.5445 12.8815 3.389C11.8235 2.24 10.215 1.5 8 1.5C5.785 1.5 4.175 2.24 3.1175 3.389Z" fill="#76615A"/>
</svg>
