<svg width="16" height="16" viewBox="0 0 16 16" fill="none" xmlns="http://www.w3.org/2000/svg">
<path d="M3.1175 3.389C2.0525 4.5445 1.5 6.164 1.5 7.999C1.5 9.834 2.053 11.454 3.1175 12.61C3.64504 13.1793 4.28711 13.6305 5.0015 13.934L5 14C5 14.4885 5.2335 14.922 5.595 15.196C4.278 14.8385 3.2025 14.1785 2.3815 13.2875C1.113 11.91 0.5 10.03 0.5 7.9995C0.5 5.969 1.113 4.089 2.3815 2.7115C3.6565 1.327 5.5475 0.5 8 0.5C10.4525 0.5 12.343 1.327 13.6175 2.7115C14.886 4.089 15.4995 5.969 15.4995 7.9995C15.4995 10.03 14.886 11.9095 13.6175 13.2875C12.7975 14.178 11.7225 14.838 10.4065 15.1955C10.6 15.0488 10.7551 14.8573 10.8583 14.6375C10.9615 14.4177 11.0098 14.1761 10.999 13.9335C11.713 13.6301 12.3547 13.179 12.882 12.61C13.9465 11.4545 14.4995 9.835 14.4995 7.9995C14.4995 6.1645 13.9465 4.5445 12.882 3.389C11.8235 2.24 10.215 1.5 8 1.5C5.785 1.5 4.175 2.24 3.1175 3.389Z" fill="#76615A"/>
<path d="M6.5 14.9999C6.23478 14.9999 5.98043 14.8945 5.79289 14.707C5.60536 14.5195 5.5 14.2651 5.5 13.9999C5.5 13.7347 5.60536 13.4803 5.79289 13.2928C5.98043 13.1052 6.23478 12.9999 6.5 12.9999C7.2435 12.6414 7.5975 11.8034 7.7235 11.4254L7.7265 11.4169L7.75 11.3434C7.7705 11.2749 7.78 11.2349 7.78 11.2349C7.885 11.0949 8.09 11.0949 8.195 11.2349C8.2105 11.2957 8.22885 11.3558 8.25 11.4149L8.253 11.4234C8.381 11.7934 8.7395 12.6119 9.5 12.9999C9.63483 12.9999 9.76825 13.0273 9.89225 13.0802C10.0162 13.1331 10.1283 13.2106 10.2215 13.3079C10.3148 13.4053 10.3875 13.5205 10.4351 13.6466C10.4827 13.7727 10.5044 13.9072 10.4987 14.0419C10.493 14.1766 10.4602 14.3088 10.4021 14.4305C10.3441 14.5522 10.262 14.6609 10.1609 14.75C10.0597 14.8392 9.94161 14.907 9.81361 14.9493C9.6856 14.9916 9.55035 15.0077 9.416 14.9964C9.3134 15.29 9.12194 15.5444 8.86819 15.7242C8.61445 15.904 8.31101 16.0004 8 15.9999C7.68891 16.0007 7.38529 15.9045 7.13148 15.7246C6.87766 15.5448 6.68628 15.2902 6.584 14.9964C6.55606 14.9987 6.52804 14.9999 6.5 14.9999Z" fill="#76615A"/>
<path d="M8.68991 11.15L8.69441 11.165C8.83378 11.0247 8.92841 10.8462 8.96634 10.6521C9.00428 10.458 8.98381 10.257 8.90753 10.0746C8.83125 9.89212 8.70258 9.73637 8.53779 9.62703C8.373 9.51769 8.17949 9.45967 7.98173 9.4603C7.78397 9.46093 7.59083 9.52018 7.42674 9.63057C7.26265 9.74095 7.13498 9.89751 7.05986 10.0805C6.98474 10.2634 6.96555 10.4645 7.00472 10.6584C7.04389 10.8522 7.13966 11.0301 7.27991 11.1695L7.28391 11.156L7.29191 11.125L7.29341 11.119L7.31741 11.019L7.37991 10.935C7.45041 10.8403 7.54205 10.7635 7.64753 10.7105C7.753 10.6576 7.86939 10.63 7.98741 10.63C8.10543 10.63 8.22182 10.6576 8.3273 10.7105C8.43277 10.7635 8.52441 10.8403 8.59491 10.935L8.65641 11.017L8.68041 11.1155L8.68191 11.1205L8.68991 11.15ZM3.48691 4.829C3.55891 4.614 3.73791 4.275 4.03441 3.994C4.32691 3.7165 4.72591 3.5 5.24991 3.5C5.31622 3.5 5.3798 3.47366 5.42669 3.42678C5.47357 3.37989 5.49991 3.3163 5.49991 3.25C5.49991 3.1837 5.47357 3.12011 5.42669 3.07322C5.3798 3.02634 5.31622 3 5.24991 3C4.57441 3 4.05691 3.2835 3.69091 3.631C3.32891 3.975 3.10791 4.386 3.01341 4.671C2.99531 4.73308 3.00196 4.79975 3.03197 4.85703C3.06198 4.9143 3.11301 4.95772 3.17436 4.97817C3.2357 4.99862 3.30258 4.9945 3.36095 4.96669C3.41933 4.93887 3.46415 4.88952 3.48691 4.829ZM12.5129 4.829C12.4409 4.614 12.2614 4.275 11.9654 3.994C11.6729 3.7165 11.2739 3.5 10.7499 3.5C10.6836 3.5 10.62 3.47366 10.5731 3.42678C10.5263 3.37989 10.4999 3.3163 10.4999 3.25C10.4999 3.1837 10.5263 3.12011 10.5731 3.07322C10.62 3.02634 10.6836 3 10.7499 3C11.4259 3 11.9434 3.2835 12.3099 3.631C12.6714 3.975 12.8919 4.386 12.9869 4.671C12.9988 4.70248 13.0041 4.73602 13.0027 4.76962C13.0013 4.80322 12.9931 4.83618 12.9786 4.86654C12.9641 4.8969 12.9437 4.92403 12.9185 4.9463C12.8933 4.96857 12.8639 4.98554 12.832 4.99617C12.8001 5.00681 12.7663 5.01089 12.7328 5.00819C12.6993 5.00549 12.6667 4.99605 12.6369 4.98044C12.6071 4.96484 12.5808 4.94338 12.5595 4.91736C12.5382 4.89134 12.5223 4.86128 12.5129 4.829ZM3.80991 6.6075C3.75837 6.56679 3.69931 6.53663 3.63611 6.51875C3.57291 6.50086 3.50681 6.4956 3.44158 6.50326C3.37634 6.51092 3.31326 6.53135 3.25592 6.56339C3.19859 6.59544 3.14812 6.63846 3.10741 6.69C3.0667 6.74154 3.03654 6.8006 3.01866 6.8638C3.00077 6.927 2.99551 6.9931 3.00317 7.05834C3.01864 7.19008 3.08581 7.31028 3.18991 7.3925C3.69791 7.7935 4.22891 8 4.99991 8C5.76691 8 6.31941 7.7925 6.81591 7.3875C6.91868 7.30369 6.98395 7.18249 6.99736 7.05056C7.01077 6.91863 6.97122 6.78677 6.88741 6.684C6.8036 6.58123 6.6824 6.51596 6.55047 6.50255C6.41854 6.48914 6.28668 6.52869 6.18391 6.6125C5.87541 6.8645 5.54891 7 4.99991 7C4.45491 7 4.14191 6.87 3.80991 6.6075ZM9.80991 6.6075C9.75837 6.56679 9.69931 6.53663 9.63611 6.51875C9.57291 6.50086 9.50681 6.4956 9.44158 6.50326C9.37634 6.51092 9.31326 6.53135 9.25592 6.56339C9.19859 6.59544 9.14812 6.63846 9.10741 6.69C9.0667 6.74154 9.03654 6.8006 9.01866 6.8638C9.00077 6.927 8.99551 6.9931 9.00317 7.05834C9.01083 7.12357 9.03127 7.18665 9.06331 7.24399C9.09535 7.30133 9.13837 7.35179 9.18991 7.3925C9.69791 7.7935 10.2289 8 10.9999 8C11.7669 8 12.3194 7.7925 12.8159 7.3875C12.9187 7.30369 12.984 7.18249 12.9974 7.05056C13.0108 6.91863 12.9712 6.78677 12.8874 6.684C12.8459 6.63311 12.7948 6.5909 12.737 6.55976C12.6792 6.52863 12.6158 6.50919 12.5505 6.50255C12.4185 6.48914 12.2867 6.52869 12.1839 6.6125C11.8754 6.8645 11.5489 7 10.9999 7C10.4549 7 10.1419 6.87 9.80991 6.6075Z" fill="#76615A"/>
</svg>
