<svg width="18" height="18" viewBox="0 0 18 18" fill="none" xmlns="http://www.w3.org/2000/svg">
<path d="M16.4333 5.35648C16.1705 4.45398 15.6842 3.63237 15.0195 2.9677C14.3549 2.30303 13.5333 1.81678 12.6308 1.55398C12.3848 1.49047 12.1267 1.49047 11.8808 1.55398C11.6334 1.6258 11.4087 1.76011 11.2283 1.94398L9.55576 3.62398L2.40076 10.7715C2.17587 11.0063 2.02915 11.305 1.98076 11.6265L1.52326 14.7465C1.48826 14.98 1.5062 15.2184 1.57576 15.444C1.65226 15.669 1.77826 15.8737 1.94326 16.044C2.11126 16.2105 2.31376 16.338 2.53576 16.419C2.69101 16.47 2.85301 16.4947 3.01576 16.494H3.23326L6.35326 16.0365C6.67899 15.9947 6.98199 15.8471 7.21576 15.6165L14.3783 8.45398L16.0433 6.79648C16.2309 6.61288 16.367 6.38326 16.4381 6.13057C16.5091 5.87787 16.5127 5.61096 16.4483 5.35648H16.4333ZM15.3383 5.82898C15.3185 5.8923 15.2822 5.94923 15.2333 5.99398L13.9658 7.26148L10.7258 4.02898L12.0083 2.74648C12.0578 2.70157 12.1167 2.66826 12.1808 2.64898H12.3533C13.0633 2.86018 13.7095 3.24511 14.2333 3.76893C14.7571 4.29275 15.1421 4.93893 15.3533 5.64898C15.3605 5.70938 15.3554 5.77061 15.3383 5.82898Z" fill="#B28C7E"/>
</svg>
