<svg width="32" height="32" viewBox="0 0 32 32" fill="none" xmlns="http://www.w3.org/2000/svg">
<path d="M22 5.3335H10.6667C9.25219 5.3335 7.89563 5.8954 6.89544 6.89559C5.89525 7.89579 5.33334 9.25234 5.33334 10.6668V22.0002C5.33334 23.4147 5.89525 24.7712 6.89544 25.7714C7.89563 26.7716 9.25219 27.3335 10.6667 27.3335H19.7907C20.4912 27.3335 21.1849 27.1955 21.8321 26.9274C22.4793 26.6593 23.0674 26.2663 23.5627 25.7708L25.7707 23.5628C26.2661 23.0675 26.6591 22.4795 26.9273 21.8323C27.1954 21.1851 27.3334 20.4914 27.3333 19.7908V10.6668C27.3333 9.25234 26.7714 7.89579 25.7712 6.89559C24.7711 5.8954 23.4145 5.3335 22 5.3335Z" stroke="#D4B6A6" stroke-width="1.5" stroke-linecap="round" stroke-linejoin="round"/>
<path d="M27.3334 18.667H22.6667C21.6058 18.667 20.5884 19.0884 19.8383 19.8386C19.0881 20.5887 18.6667 21.6061 18.6667 22.667V27.3337M10.6667 10.667H20.6667M10.6667 16.0003H17.3334" stroke="#D4B6A6" stroke-width="1.5" stroke-linecap="round" stroke-linejoin="round"/>
</svg>
