<svg width="32" height="32" viewBox="0 0 32 32" fill="none" xmlns="http://www.w3.org/2000/svg">
<circle cx="16" cy="16" r="16" fill="#D9D9D9"/>
<path d="M4.96055 26.054C5.04133 26.0749 5.12716 26.0633 5.19943 26.0217C5.2717 25.98 5.32458 25.9116 5.34661 25.8313C5.99636 23.4139 8.63699 22.7874 10.2153 22.4125C10.6108 22.3188 10.9231 22.2445 11.1262 22.1571C12.9241 21.379 13.5101 20.1272 13.6855 19.2139C13.6959 19.1595 13.6918 19.1034 13.6735 19.0512C13.6552 18.9989 13.6235 18.9524 13.5814 18.9163C12.6452 18.1105 11.8555 16.9009 11.3571 15.5095C11.3429 15.4696 11.3208 15.4331 11.2921 15.4019C10.6329 14.6873 10.2544 13.9319 10.2544 13.3299C10.2544 12.9783 10.3875 12.7424 10.6872 12.5644C10.7321 12.5376 10.7696 12.5001 10.7963 12.4553C10.8231 12.4105 10.8382 12.3598 10.8405 12.3077C10.9799 9.10342 13.2685 6.581 16.0757 6.56465L16.1432 6.56905C18.9642 6.60805 21.2383 9.18456 21.3197 12.4341C21.3209 12.4785 21.3316 12.5222 21.3509 12.5622C21.3703 12.6022 21.3979 12.6377 21.432 12.6663C21.6294 12.833 21.7215 13.0443 21.7215 13.3311C21.7215 13.835 21.4522 14.4546 20.9639 15.0748C20.9404 15.1045 20.9225 15.1382 20.9109 15.1742C20.4063 16.7694 19.5004 18.1778 18.4268 19.0396C18.3822 19.0753 18.3482 19.1225 18.3284 19.176C18.3086 19.2295 18.3038 19.2874 18.3145 19.3434C18.4898 20.2562 19.0759 21.5073 20.8737 22.2867C21.0863 22.3785 21.4162 22.4502 21.8345 22.5402C23.397 22.8773 26.0118 23.4428 26.6533 25.8313C26.6641 25.8712 26.6826 25.9086 26.7079 25.9413C26.7332 25.9741 26.7647 26.0015 26.8006 26.0222C26.8365 26.0428 26.8761 26.0561 26.9172 26.0615C26.9583 26.0668 27 26.0641 27.04 26.0533C27.08 26.0426 27.1175 26.0241 27.1504 25.9989C27.1832 25.9737 27.2108 25.9423 27.2315 25.9065C27.2521 25.8707 27.2655 25.8312 27.2709 25.7902C27.2763 25.7492 27.2735 25.7076 27.2627 25.6677C26.5215 22.9082 23.5591 22.2684 21.9682 21.925C21.5992 21.8451 21.2806 21.7765 21.1254 21.7086C19.9521 21.2003 19.2292 20.426 18.9737 19.4032C20.0631 18.4703 20.9747 17.0311 21.4957 15.417C22.0489 14.6999 22.353 13.9614 22.353 13.3305C22.353 12.9097 22.2167 12.5587 21.9468 12.2844C21.7966 8.75934 19.2739 5.98342 16.1432 5.93876L16.0492 5.9375C12.9752 5.95385 10.4418 8.65681 10.2204 12.1209C9.82546 12.4102 9.62486 12.816 9.62486 13.3311C9.62486 14.0753 10.0469 14.9654 10.7856 15.7819C11.2959 17.1802 12.087 18.4087 13.0288 19.2686C12.7746 20.2952 12.051 21.072 10.8752 21.5809C10.7231 21.647 10.4203 21.7193 10.0696 21.8023C8.46667 22.1823 5.48413 22.8899 4.73723 25.669C4.71566 25.7496 4.72707 25.8354 4.76895 25.9076C4.81083 25.9798 4.87974 26.0324 4.96055 26.054Z" fill="white"/>
</svg>
