<svg width="124" height="124" viewBox="0 0 124 124" fill="none" xmlns="http://www.w3.org/2000/svg">
<circle cx="62" cy="62" r="62" fill="#D9D9D9"/>
<path d="M19.2222 104.959C19.5353 105.04 19.8679 104.995 20.1479 104.833C20.4279 104.672 20.6328 104.407 20.7182 104.096C23.236 94.7284 33.4684 92.3006 39.5844 90.8479C41.1171 90.4847 42.3271 90.1971 43.1142 89.8583C50.0809 86.8431 52.3518 81.9924 53.0313 78.4532C53.0717 78.2426 53.0557 78.0252 52.9849 77.8227C52.9141 77.6203 52.791 77.4401 52.628 77.3003C49.0004 74.1778 45.94 69.4905 44.0089 64.0988C43.9539 63.9444 43.8683 63.8026 43.7571 63.6819C41.2027 60.9129 39.736 57.9855 39.736 55.6528C39.736 54.2903 40.2518 53.3762 41.4129 52.6864C41.5868 52.5827 41.7322 52.4375 41.8358 52.2639C41.9395 52.0903 41.9983 51.8938 42.0069 51.6919C42.5471 39.2753 51.4156 29.5009 62.2933 29.4375L62.5549 29.4546C73.4864 29.6057 82.2987 39.5897 82.614 52.1818C82.6187 52.3539 82.6599 52.523 82.7349 52.678C82.8099 52.833 82.917 52.9705 83.0491 53.0813C83.8142 53.7272 84.1711 54.5462 84.1711 55.6577C84.1711 57.6101 83.1273 60.0111 81.2353 62.4144C81.1442 62.5295 81.0747 62.6599 81.03 62.7996C79.0744 68.9811 75.5642 74.4386 71.4038 77.778C71.231 77.9165 71.0993 78.0992 71.0226 78.3065C70.946 78.5139 70.9273 78.7382 70.9687 78.9553C71.6482 82.4921 73.9191 87.3403 80.8858 90.3604C81.7096 90.7163 82.988 90.9941 84.6087 91.3427C90.6636 92.6492 100.796 94.8405 103.282 104.096C103.324 104.25 103.395 104.395 103.493 104.522C103.591 104.649 103.713 104.755 103.852 104.835C103.991 104.915 104.145 104.967 104.304 104.988C104.463 105.008 104.625 104.998 104.78 104.956C104.935 104.915 105.081 104.843 105.208 104.745C105.335 104.648 105.442 104.526 105.522 104.387C105.602 104.248 105.654 104.095 105.675 103.937C105.696 103.778 105.685 103.617 105.643 103.462C102.771 92.7686 91.2918 90.2897 85.1269 88.9588C83.6969 88.6493 82.4624 88.3836 81.8611 88.1203C77.3144 86.1508 74.5131 83.1503 73.5231 79.1869C77.7447 75.5721 81.2769 69.9951 83.296 63.7404C85.4398 60.9617 86.618 58.1001 86.618 55.6553C86.618 54.0246 86.09 52.6644 85.0438 51.6017C84.462 37.9419 74.6867 27.1853 62.5549 27.0122L62.1907 27.0073C50.2789 27.0707 40.462 37.5446 39.604 50.9679C38.0738 52.0892 37.2964 53.6614 37.2964 55.6577C37.2964 58.5413 38.9318 61.9903 41.7942 65.1542C43.7718 70.5728 46.8371 75.3332 50.4867 78.6653C49.5016 82.6433 46.6978 85.6536 42.1413 87.6255C41.5522 87.8814 40.3789 88.1618 39.0198 88.4835C32.8084 89.9558 21.2511 92.698 18.3569 103.467C18.2733 103.779 18.3175 104.112 18.4798 104.391C18.6421 104.671 18.9091 104.875 19.2222 104.959Z" fill="white"/>
</svg>
