<svg width="24" height="24" viewBox="0 0 24 24" fill="none" xmlns="http://www.w3.org/2000/svg">
<path d="M6.75 3H5.75C5.02065 3 4.32118 3.28973 3.80546 3.80546C3.28973 4.32118 3 5.02065 3 5.75V18.25C3 18.9793 3.28973 19.6788 3.80546 20.1945C4.32118 20.7103 5.02065 21 5.75 21H6V15C6 14.4033 6.23705 13.831 6.65901 13.409C7.08097 12.9871 7.65326 12.75 8.25 12.75H15.603L17.391 10.962C17.6958 10.6569 18.0578 10.4148 18.4562 10.2498C18.8546 10.0847 19.2817 9.99982 19.713 10H19.715C20.152 10 20.59 10.087 21 10.261V8.287C21.0001 7.86004 20.9161 7.43725 20.7527 7.04278C20.5894 6.64831 20.3499 6.28989 20.048 5.988L18.013 3.953C17.4123 3.35163 16.5999 3.00952 15.75 3V7.5C15.75 8.09674 15.5129 8.66903 15.091 9.09099C14.669 9.51295 14.0967 9.75 13.5 9.75H9C8.40326 9.75 7.83097 9.51295 7.40901 9.09099C6.98705 8.66903 6.75 8.09674 6.75 7.5V3ZM14.103 14.25L11.488 16.865C11.0164 17.3378 10.6816 17.9293 10.519 18.577L10.061 20.407C10.011 20.609 9.99067 20.8067 10 21H7.5V15C7.5 14.8011 7.57902 14.6103 7.71967 14.4697C7.86032 14.329 8.05109 14.25 8.25 14.25H14.103ZM14.25 3V7.5C14.25 7.69891 14.171 7.88968 14.0303 8.03033C13.8897 8.17098 13.6989 8.25 13.5 8.25H9C8.80109 8.25 8.61032 8.17098 8.46967 8.03033C8.32902 7.88968 8.25 7.69891 8.25 7.5V3H14.25ZM19.715 11H19.713C19.128 11 18.543 11.223 18.098 11.67L12.196 17.572C11.8523 17.9164 11.608 18.3472 11.489 18.819L11.031 20.65C10.9855 20.8322 10.9879 21.023 11.038 21.204C11.0882 21.385 11.1844 21.5498 11.3172 21.6826C11.45 21.8153 11.615 21.9114 11.796 21.9614C11.977 22.0114 12.1679 22.0137 12.35 21.968L14.18 21.511C14.6521 21.3922 15.0834 21.1479 15.428 20.804L21.33 14.902C21.65 14.5825 21.8679 14.1754 21.9564 13.732C22.0448 13.2886 21.9997 12.8289 21.8268 12.4112C21.6539 11.9934 21.361 11.6363 20.985 11.3851C20.6091 11.1339 20.1671 10.9999 19.715 11Z" fill="#B28C7E"/>
</svg>
