<svg width="96" height="96" viewBox="0 0 96 96" fill="none" xmlns="http://www.w3.org/2000/svg">
<rect width="96" height="96" fill="#D4B6A6"/>
<path d="M30.3633 32.328C30.3633 22.5897 38.2577 14.6953 47.9959 14.6953C57.7342 14.6953 65.6286 22.5897 65.6286 32.328C65.6286 42.0662 57.7342 49.9606 47.9959 49.9606C45.0135 49.9606 42.1998 49.2188 39.7338 47.9089L32.7714 49.8888C32.4478 49.9806 32.1056 49.9842 31.7801 49.8995C31.4547 49.8147 31.1577 49.6446 30.9199 49.4067C30.6822 49.1689 30.5122 48.8718 30.4277 48.5463C30.3431 48.2208 30.347 47.8786 30.4389 47.555L32.4188 40.5939C31.0655 38.0491 30.3596 35.2102 30.3633 32.328ZM40.4391 28.5495C40.4391 28.8836 40.5718 29.2039 40.808 29.4401C41.0442 29.6763 41.3645 29.809 41.6986 29.809H54.2933C54.6273 29.809 54.9477 29.6763 55.1839 29.4401C55.4201 29.2039 55.5528 28.8836 55.5528 28.5495C55.5528 28.2155 55.4201 27.8952 55.1839 27.659C54.9477 27.4228 54.6273 27.2901 54.2933 27.2901H41.6986C41.3645 27.2901 41.0442 27.4228 40.808 27.659C40.5718 27.8952 40.4391 28.2155 40.4391 28.5495ZM41.6986 34.8469C41.3645 34.8469 41.0442 34.9796 40.808 35.2158C40.5718 35.452 40.4391 35.7724 40.4391 36.1064C40.4391 36.4404 40.5718 36.7608 40.808 36.997C41.0442 37.2332 41.3645 37.3659 41.6986 37.3659H49.2554C49.5894 37.3659 49.9098 37.2332 50.146 36.997C50.3822 36.7608 50.5149 36.4404 50.5149 36.1064C50.5149 35.7724 50.3822 35.452 50.146 35.2158C49.9098 34.9796 49.5894 34.8469 49.2554 34.8469H41.6986Z" fill="white"/>
<path d="M26.2238 70.5C26.2238 69.5667 26.4105 68.1667 26.7838 66.3H23.8238L22.7238 72H18.5438L21.0838 58.8H25.3038L24.1438 64.7H27.1038L28.2038 58.8H32.4238C32.2372 59.7867 32.0238 60.8333 31.7838 61.94L31.1038 65.2C30.5972 67.7333 30.3438 69.5533 30.3438 70.66C30.3438 71.1133 30.4172 71.4667 30.5638 71.72C29.8972 72.1733 29.1705 72.4 28.3838 72.4C27.6105 72.4 27.0572 72.2133 26.7238 71.84C26.3905 71.4667 26.2238 71.02 26.2238 70.5ZM41.0045 68.62C41.3378 68.8467 41.5045 69.2133 41.5045 69.72C41.5045 70.2133 41.3778 70.62 41.1245 70.94C40.8711 71.26 40.5378 71.5267 40.1245 71.74C39.2711 72.18 38.3845 72.4 37.4645 72.4C36.5445 72.4 35.8111 72.3 35.2645 72.1C34.7311 71.9 34.2845 71.6133 33.9245 71.24C33.2178 70.5333 32.8645 69.5333 32.8645 68.24C32.8645 66.2267 33.4111 64.6067 34.5045 63.38C35.6778 62.06 37.2845 61.4 39.3245 61.4C40.5911 61.4 41.5378 61.6667 42.1645 62.2C42.6311 62.6 42.8645 63.1267 42.8645 63.78C42.8645 66.1267 40.8378 67.3 36.7845 67.3C36.7311 67.6467 36.7045 67.9667 36.7045 68.26C36.7045 68.8733 36.8378 69.3 37.1045 69.54C37.3845 69.7667 37.7778 69.88 38.2845 69.88C38.7911 69.88 39.3111 69.7667 39.8445 69.54C40.3911 69.3 40.7778 68.9933 41.0045 68.62ZM36.9245 66.44C37.8711 66.44 38.6178 66.1467 39.1645 65.56C39.7111 65 39.9845 64.2733 39.9845 63.38C39.9845 63.0733 39.9245 62.84 39.8045 62.68C39.6978 62.5067 39.5311 62.42 39.3045 62.42C39.0778 62.42 38.8645 62.4667 38.6645 62.56C38.4778 62.64 38.2845 62.8267 38.0845 63.12C37.5911 63.7867 37.2045 64.8933 36.9245 66.44ZM49.909 69.74C49.2157 70.46 48.2357 70.82 46.969 70.82C45.3823 70.82 44.4223 70.24 44.089 69.08C43.9823 68.7333 43.929 68.3667 43.929 67.98C43.929 67.5933 43.969 67.2 44.049 66.8L44.989 61.8L49.049 61.4L47.949 67.22C47.9223 67.3933 47.889 67.5733 47.849 67.76C47.809 67.9467 47.789 68.14 47.789 68.34C47.789 68.5267 47.8223 68.6867 47.889 68.82C47.9557 68.94 48.0357 69.04 48.129 69.12C48.289 69.2267 48.509 69.28 48.789 69.28C49.0823 69.28 49.349 69.1067 49.589 68.76C49.8423 68.4133 50.029 67.94 50.149 67.34L51.249 61.8L55.189 61.4L53.689 69.26C53.1957 71.82 52.4423 73.6067 51.429 74.62C50.909 75.14 50.309 75.5 49.629 75.7C48.9623 75.9133 48.1957 76.02 47.329 76.02C45.929 76.02 44.829 75.8 44.029 75.36C43.229 74.92 42.829 74.3333 42.829 73.6C42.829 73.0533 43.0357 72.62 43.449 72.3C43.8623 71.9933 44.389 71.84 45.029 71.84C45.589 71.84 46.0823 71.96 46.509 72.2C46.7623 72.3467 46.949 72.5133 47.069 72.7C46.7623 72.9667 46.609 73.32 46.609 73.76C46.609 74.3467 46.8757 74.64 47.409 74.64C48.289 74.64 48.9823 73.6267 49.489 71.6C49.6357 71 49.7757 70.38 49.909 69.74ZM62.2123 61.4C62.6923 61.4 63.1189 61.4533 63.4923 61.56C63.5056 61.5067 63.5256 61.4067 63.5523 61.26L63.6523 60.64C63.7056 60.3733 63.7723 60.02 63.8523 59.58L64.1723 58L68.1523 57.6L65.9323 69.2C65.9189 69.28 65.9123 69.3867 65.9123 69.52V69.84C65.9123 70.1333 65.9856 70.3933 66.1323 70.62C66.2789 70.8333 66.4723 70.94 66.7123 70.94C66.4456 71.5667 65.9056 72.0133 65.0923 72.28C64.8123 72.36 64.4723 72.4 64.0723 72.4C63.6856 72.4 63.3123 72.2933 62.9523 72.08C62.5923 71.88 62.3589 71.6067 62.2523 71.26C62.0389 71.6067 61.7189 71.88 61.2923 72.08C60.8656 72.2933 60.3389 72.4 59.7123 72.4C59.0989 72.4 58.5323 72.32 58.0123 72.16C57.5056 72 57.0923 71.7467 56.7723 71.4C56.1856 70.72 55.8923 69.6067 55.8923 68.06C55.8923 66.06 56.4789 64.4533 57.6523 63.24C58.8256 62.0133 60.3456 61.4 62.2123 61.4ZM62.0723 62.6C61.5789 62.6 61.1989 62.8667 60.9323 63.4C60.6656 63.9333 60.3923 64.86 60.1123 66.18C59.8456 67.5 59.7123 68.7533 59.7123 69.94C59.7123 70.7533 59.9523 71.16 60.4323 71.16C60.8589 71.16 61.2189 70.9467 61.5123 70.52C61.8189 70.0933 62.0323 69.5267 62.1523 68.82L63.2323 62.96C62.9523 62.72 62.5656 62.6 62.0723 62.6ZM73.2123 70.9C72.7989 71.9 71.9323 72.4 70.6123 72.4C69.9323 72.4 69.3789 72.1667 68.9523 71.7C68.5923 71.2867 68.4123 70.8733 68.4123 70.46C68.4123 69.38 68.6589 67.7867 69.1523 65.68L69.8923 61.8L73.9523 61.4L72.7323 67.72C72.5056 68.7067 72.3923 69.3733 72.3923 69.72C72.3923 70.48 72.6656 70.8733 73.2123 70.9ZM70.2523 59.02C70.2523 58.5 70.4656 58.1 70.8923 57.82C71.3323 57.54 71.8656 57.4 72.4923 57.4C73.1189 57.4 73.6189 57.54 73.9923 57.82C74.3789 58.1 74.5723 58.5 74.5723 59.02C74.5723 59.54 74.3589 59.9333 73.9323 60.2C73.5189 60.4667 72.9989 60.6 72.3723 60.6C71.7456 60.6 71.2323 60.4667 70.8323 60.2C70.4456 59.9333 70.2523 59.54 70.2523 59.02Z" fill="white"/>
</svg>
