<svg width="72" height="72" viewBox="0 0 72 72" fill="none" xmlns="http://www.w3.org/2000/svg">
<rect width="72" height="72" fill="#D4B6A6"/>
<path d="M22.7725 24.246C22.7725 16.9423 28.6933 11.0215 35.997 11.0215C43.3006 11.0215 49.2214 16.9423 49.2214 24.246C49.2214 31.5497 43.3006 37.4705 35.997 37.4705C33.7601 37.4705 31.6499 36.9141 29.8003 35.9317L24.5786 37.4166C24.3359 37.4854 24.0792 37.4882 23.8351 37.4246C23.591 37.361 23.3683 37.2335 23.19 37.0551C23.0116 36.8766 22.8842 36.6539 22.8208 36.4097C22.7573 36.1656 22.7602 35.9089 22.8291 35.6663L24.3141 30.4454C23.2991 28.5368 22.7697 26.4077 22.7725 24.246ZM30.3293 21.4122C30.3293 21.6627 30.4288 21.9029 30.606 22.0801C30.7831 22.2572 31.0234 22.3568 31.2739 22.3568H40.72C40.9705 22.3568 41.2108 22.2572 41.3879 22.0801C41.5651 21.9029 41.6646 21.6627 41.6646 21.4122C41.6646 21.1616 41.5651 20.9214 41.3879 20.7442C41.2108 20.5671 40.9705 20.4675 40.72 20.4675H31.2739C31.0234 20.4675 30.7831 20.5671 30.606 20.7442C30.4288 20.9214 30.3293 21.1616 30.3293 21.4122ZM31.2739 26.1352C31.0234 26.1352 30.7831 26.2347 30.606 26.4119C30.4288 26.589 30.3293 26.8293 30.3293 27.0798C30.3293 27.3303 30.4288 27.5706 30.606 27.7477C30.7831 27.9249 31.0234 28.0244 31.2739 28.0244H36.9416C37.1921 28.0244 37.4324 27.9249 37.6095 27.7477C37.7866 27.5706 37.8862 27.3303 37.8862 27.0798C37.8862 26.8293 37.7866 26.589 37.6095 26.4119C37.4324 26.2347 37.1921 26.1352 36.9416 26.1352H31.2739Z" fill="white"/>
<path d="M18.6541 53.3C18.6541 52.5533 18.8034 51.4333 19.1021 49.94H16.7341L15.8541 54.5H12.5101L14.5421 43.94H17.9181L16.9901 48.66H19.3581L20.2381 43.94H23.6141C23.4647 44.7293 23.2941 45.5667 23.1021 46.452L22.5581 49.06C22.1527 51.0867 21.9501 52.5427 21.9501 53.428C21.9501 53.7907 22.0087 54.0733 22.1261 54.276C21.5927 54.6387 21.0114 54.82 20.3821 54.82C19.7634 54.82 19.3207 54.6707 19.0541 54.372C18.7874 54.0733 18.6541 53.716 18.6541 53.3ZM30.4786 51.796C30.7452 51.9773 30.8786 52.2707 30.8786 52.676C30.8786 53.0707 30.7772 53.396 30.5746 53.652C30.3719 53.908 30.1052 54.1213 29.7746 54.292C29.0919 54.644 28.3826 54.82 27.6466 54.82C26.9106 54.82 26.3239 54.74 25.8866 54.58C25.4599 54.42 25.1026 54.1907 24.8146 53.892C24.2492 53.3267 23.9666 52.5267 23.9666 51.492C23.9666 49.8813 24.4039 48.5853 25.2786 47.604C26.2172 46.548 27.5026 46.02 29.1346 46.02C30.1479 46.02 30.9052 46.2333 31.4066 46.66C31.7799 46.98 31.9666 47.4013 31.9666 47.924C31.9666 49.8013 30.3452 50.74 27.1026 50.74C27.0599 51.0173 27.0386 51.2733 27.0386 51.508C27.0386 51.9987 27.1452 52.34 27.3586 52.532C27.5826 52.7133 27.8972 52.804 28.3026 52.804C28.7079 52.804 29.1239 52.7133 29.5506 52.532C29.9879 52.34 30.2972 52.0947 30.4786 51.796ZM27.2146 50.052C27.9719 50.052 28.5692 49.8173 29.0066 49.348C29.4439 48.9 29.6626 48.3187 29.6626 47.604C29.6626 47.3587 29.6146 47.172 29.5186 47.044C29.4332 46.9053 29.2999 46.836 29.1186 46.836C28.9372 46.836 28.7666 46.8733 28.6066 46.948C28.4572 47.012 28.3026 47.1613 28.1426 47.396C27.7479 47.9293 27.4386 48.8147 27.2146 50.052ZM37.6022 52.692C37.0475 53.268 36.2635 53.556 35.2502 53.556C33.9809 53.556 33.2129 53.092 32.9462 52.164C32.8609 51.8867 32.8182 51.5933 32.8182 51.284C32.8182 50.9747 32.8502 50.66 32.9142 50.34L33.6662 46.34L36.9142 46.02L36.0342 50.676C36.0129 50.8147 35.9862 50.9587 35.9542 51.108C35.9222 51.2573 35.9062 51.412 35.9062 51.572C35.9062 51.7213 35.9329 51.8493 35.9862 51.956C36.0395 52.052 36.1035 52.132 36.1782 52.196C36.3062 52.2813 36.4822 52.324 36.7062 52.324C36.9409 52.324 37.1542 52.1853 37.3462 51.908C37.5489 51.6307 37.6982 51.252 37.7942 50.772L38.6742 46.34L41.8262 46.02L40.6262 52.308C40.2315 54.356 39.6289 55.7853 38.8182 56.596C38.4022 57.012 37.9222 57.3 37.3782 57.46C36.8449 57.6307 36.2315 57.716 35.5382 57.716C34.4182 57.716 33.5382 57.54 32.8982 57.188C32.2582 56.836 31.9382 56.3667 31.9382 55.78C31.9382 55.3427 32.1035 54.996 32.4342 54.74C32.7649 54.4947 33.1862 54.372 33.6982 54.372C34.1462 54.372 34.5409 54.468 34.8822 54.66C35.0849 54.7773 35.2342 54.9107 35.3302 55.06C35.0849 55.2733 34.9622 55.556 34.9622 55.908C34.9622 56.3773 35.1755 56.612 35.6022 56.612C36.3062 56.612 36.8609 55.8013 37.2662 54.18C37.3835 53.7 37.4955 53.204 37.6022 52.692ZM47.4448 46.02C47.8288 46.02 48.1701 46.0627 48.4688 46.148C48.4795 46.1053 48.4955 46.0253 48.5168 45.908L48.5968 45.412C48.6395 45.1987 48.6928 44.916 48.7568 44.564L49.0128 43.3L52.1968 42.98L50.4208 52.26C50.4101 52.324 50.4048 52.4093 50.4048 52.516V52.772C50.4048 53.0067 50.4635 53.2147 50.5808 53.396C50.6981 53.5667 50.8528 53.652 51.0448 53.652C50.8315 54.1533 50.3995 54.5107 49.7488 54.724C49.5248 54.788 49.2528 54.82 48.9328 54.82C48.6235 54.82 48.3248 54.7347 48.0368 54.564C47.7488 54.404 47.5621 54.1853 47.4768 53.908C47.3061 54.1853 47.0501 54.404 46.7088 54.564C46.3675 54.7347 45.9461 54.82 45.4448 54.82C44.9541 54.82 44.5008 54.756 44.0848 54.628C43.6795 54.5 43.3488 54.2973 43.0928 54.02C42.6235 53.476 42.3888 52.5853 42.3888 51.348C42.3888 49.748 42.8581 48.4627 43.7968 47.492C44.7355 46.5107 45.9515 46.02 47.4448 46.02ZM47.3328 46.98C46.9381 46.98 46.6341 47.1933 46.4208 47.62C46.2075 48.0467 45.9888 48.788 45.7648 49.844C45.5515 50.9 45.4448 51.9027 45.4448 52.852C45.4448 53.5027 45.6368 53.828 46.0208 53.828C46.3621 53.828 46.6501 53.6573 46.8848 53.316C47.1301 52.9747 47.3008 52.5213 47.3968 51.956L48.2608 47.268C48.0368 47.076 47.7275 46.98 47.3328 46.98ZM56.2448 53.62C55.9141 54.42 55.2208 54.82 54.1648 54.82C53.6208 54.82 53.1781 54.6333 52.8368 54.26C52.5488 53.9293 52.4048 53.5987 52.4048 53.268C52.4048 52.404 52.6021 51.1293 52.9968 49.444L53.5888 46.34L56.8368 46.02L55.8608 51.076C55.6795 51.8653 55.5888 52.3987 55.5888 52.676C55.5888 53.284 55.8075 53.5987 56.2448 53.62ZM53.8768 44.116C53.8768 43.7 54.0475 43.38 54.3888 43.156C54.7408 42.932 55.1675 42.82 55.6688 42.82C56.1701 42.82 56.5701 42.932 56.8688 43.156C57.1781 43.38 57.3328 43.7 57.3328 44.116C57.3328 44.532 57.1621 44.8467 56.8208 45.06C56.4901 45.2733 56.0741 45.38 55.5728 45.38C55.0715 45.38 54.6608 45.2733 54.3408 45.06C54.0315 44.8467 53.8768 44.532 53.8768 44.116Z" fill="white"/>
</svg>
