<svg width="152" height="152" viewBox="0 0 152 152" fill="none" xmlns="http://www.w3.org/2000/svg">
<rect width="152" height="152" fill="#D4B6A6"/>
<path d="M48.0752 51.1859C48.0752 35.767 60.5747 23.2676 75.9936 23.2676C91.4125 23.2676 103.912 35.767 103.912 51.1859C103.912 66.6049 91.4125 79.1043 75.9936 79.1043C71.2714 79.1043 66.8164 77.9297 62.9118 75.8558L51.8881 78.9906C51.3757 79.1359 50.8339 79.1417 50.3186 79.0075C49.8032 78.8733 49.333 78.604 48.9566 78.2273C48.5801 77.8507 48.3111 77.3804 48.1772 76.865C48.0432 76.3495 48.0494 75.8077 48.1949 75.2955L51.3297 64.2737C49.187 60.2444 48.0693 55.7495 48.0752 51.1859ZM64.0286 45.2034C64.0286 45.7323 64.2387 46.2395 64.6126 46.6135C64.9866 46.9875 65.4938 47.1976 66.0227 47.1976H85.9644C86.4933 47.1976 87.0005 46.9875 87.3745 46.6135C87.7485 46.2395 87.9586 45.7323 87.9586 45.2034C87.9586 44.6746 87.7485 44.1673 87.3745 43.7933C87.0005 43.4194 86.4933 43.2093 85.9644 43.2093H66.0227C65.4938 43.2093 64.9866 43.4194 64.6126 43.7933C64.2387 44.1673 64.0286 44.6746 64.0286 45.2034ZM66.0227 55.1743C65.4938 55.1743 64.9866 55.3844 64.6126 55.7584C64.2387 56.1323 64.0286 56.6396 64.0286 57.1685C64.0286 57.6973 64.2387 58.2046 64.6126 58.5785C64.9866 58.9525 65.4938 59.1626 66.0227 59.1626H77.9877C78.5166 59.1626 79.0239 58.9525 79.3978 58.5785C79.7718 58.2046 79.9819 57.6973 79.9819 57.1685C79.9819 56.6396 79.7718 56.1323 79.3978 55.7584C79.0239 55.3844 78.5166 55.1743 77.9877 55.1743H66.0227Z" fill="white"/>
<path d="M41.1831 112.1C41.1831 110.607 41.4818 108.367 42.0791 105.38H37.3431L35.5831 114.5H28.8951L32.9591 93.38H39.7111L37.8551 102.82H42.5911L44.3511 93.38H51.1031C50.8045 94.9587 50.4631 96.6333 50.0791 98.404L48.9911 103.62C48.1805 107.673 47.7751 110.585 47.7751 112.356C47.7751 113.081 47.8925 113.647 48.1271 114.052C47.0605 114.777 45.8978 115.14 44.6391 115.14C43.4018 115.14 42.5165 114.841 41.9831 114.244C41.4498 113.647 41.1831 112.932 41.1831 112.1ZM64.8321 109.092C65.3655 109.455 65.6321 110.041 65.6321 110.852C65.6321 111.641 65.4295 112.292 65.0241 112.804C64.6188 113.316 64.0855 113.743 63.4241 114.084C62.0588 114.788 60.6401 115.14 59.1681 115.14C57.6961 115.14 56.5228 114.98 55.6481 114.66C54.7948 114.34 54.0801 113.881 53.5041 113.284C52.3735 112.153 51.8081 110.553 51.8081 108.484C51.8081 105.263 52.6828 102.671 54.4321 100.708C56.3095 98.596 58.8801 97.54 62.1441 97.54C64.1708 97.54 65.6855 97.9667 66.6881 98.82C67.4348 99.46 67.8081 100.303 67.8081 101.348C67.8081 105.103 64.5655 106.98 58.0801 106.98C57.9948 107.535 57.9521 108.047 57.9521 108.516C57.9521 109.497 58.1655 110.18 58.5921 110.564C59.0401 110.927 59.6695 111.108 60.4801 111.108C61.2908 111.108 62.1228 110.927 62.9761 110.564C63.8508 110.18 64.4695 109.689 64.8321 109.092ZM58.3041 105.604C59.8188 105.604 61.0135 105.135 61.8881 104.196C62.7628 103.3 63.2001 102.137 63.2001 100.708C63.2001 100.217 63.1041 99.844 62.9121 99.588C62.7415 99.3107 62.4748 99.172 62.1121 99.172C61.7495 99.172 61.4081 99.2467 61.0881 99.396C60.7895 99.524 60.4801 99.8227 60.1601 100.292C59.3708 101.359 58.7521 103.129 58.3041 105.604ZM79.0794 110.884C77.97 112.036 76.402 112.612 74.3754 112.612C71.8367 112.612 70.3007 111.684 69.7674 109.828C69.5967 109.273 69.5114 108.687 69.5114 108.068C69.5114 107.449 69.5754 106.82 69.7034 106.18L71.2074 98.18L77.7034 97.54L75.9434 106.852C75.9007 107.129 75.8474 107.417 75.7834 107.716C75.7194 108.015 75.6874 108.324 75.6874 108.644C75.6874 108.943 75.7407 109.199 75.8474 109.412C75.954 109.604 76.082 109.764 76.2314 109.892C76.4874 110.063 76.8394 110.148 77.2874 110.148C77.7567 110.148 78.1834 109.871 78.5674 109.316C78.9727 108.761 79.2714 108.004 79.4634 107.044L81.2234 98.18L87.5274 97.54L85.1274 110.116C84.338 114.212 83.1327 117.071 81.5114 118.692C80.6794 119.524 79.7194 120.1 78.6314 120.42C77.5647 120.761 76.338 120.932 74.9514 120.932C72.7114 120.932 70.9514 120.58 69.6714 119.876C68.3914 119.172 67.7514 118.233 67.7514 117.06C67.7514 116.185 68.082 115.492 68.7434 114.98C69.4047 114.489 70.2474 114.244 71.2714 114.244C72.1674 114.244 72.9567 114.436 73.6394 114.82C74.0447 115.055 74.3434 115.321 74.5354 115.62C74.0447 116.047 73.7994 116.612 73.7994 117.316C73.7994 118.255 74.226 118.724 75.0794 118.724C76.4874 118.724 77.5967 117.103 78.4074 113.86C78.642 112.9 78.866 111.908 79.0794 110.884ZM98.7646 97.54C99.5326 97.54 100.215 97.6253 100.813 97.796C100.834 97.7107 100.866 97.5507 100.909 97.316L101.069 96.324C101.154 95.8973 101.261 95.332 101.389 94.628L101.901 92.1L108.269 91.46L104.717 110.02C104.695 110.148 104.685 110.319 104.685 110.532V111.044C104.685 111.513 104.802 111.929 105.037 112.292C105.271 112.633 105.581 112.804 105.965 112.804C105.538 113.807 104.674 114.521 103.373 114.948C102.925 115.076 102.381 115.14 101.741 115.14C101.122 115.14 100.525 114.969 99.9486 114.628C99.3726 114.308 98.9993 113.871 98.8286 113.316C98.4873 113.871 97.9753 114.308 97.2926 114.628C96.61 114.969 95.7673 115.14 94.7646 115.14C93.7833 115.14 92.8766 115.012 92.0446 114.756C91.234 114.5 90.5726 114.095 90.0606 113.54C89.122 112.452 88.6526 110.671 88.6526 108.196C88.6526 104.996 89.5913 102.425 91.4686 100.484C93.346 98.5213 95.778 97.54 98.7646 97.54ZM98.5406 99.46C97.7513 99.46 97.1433 99.8867 96.7166 100.74C96.29 101.593 95.8526 103.076 95.4046 105.188C94.978 107.3 94.7646 109.305 94.7646 111.204C94.7646 112.505 95.1486 113.156 95.9166 113.156C96.5993 113.156 97.1753 112.815 97.6446 112.132C98.1353 111.449 98.4766 110.543 98.6686 109.412L100.397 100.036C99.9486 99.652 99.33 99.46 98.5406 99.46ZM116.365 112.74C115.703 114.34 114.317 115.14 112.205 115.14C111.117 115.14 110.231 114.767 109.549 114.02C108.973 113.359 108.685 112.697 108.685 112.036C108.685 110.308 109.079 107.759 109.869 104.388L111.053 98.18L117.549 97.54L115.597 107.652C115.234 109.231 115.053 110.297 115.053 110.852C115.053 112.068 115.49 112.697 116.365 112.74ZM111.629 93.732C111.629 92.9 111.97 92.26 112.653 91.812C113.357 91.364 114.21 91.14 115.213 91.14C116.215 91.14 117.015 91.364 117.613 91.812C118.231 92.26 118.541 92.9 118.541 93.732C118.541 94.564 118.199 95.1933 117.517 95.62C116.855 96.0467 116.023 96.26 115.021 96.26C114.018 96.26 113.197 96.0467 112.557 95.62C111.938 95.1933 111.629 94.564 111.629 93.732Z" fill="white"/>
</svg>
