<svg width="128" height="128" viewBox="0 0 128 128" fill="none" xmlns="http://www.w3.org/2000/svg">
<rect width="128" height="128" fill="#D4B6A6"/>
<path d="M40.4844 43.104C40.4844 30.1196 51.0102 19.5938 63.9946 19.5938C76.9789 19.5938 87.5048 30.1196 87.5048 43.104C87.5048 56.0883 76.9789 66.6142 63.9946 66.6142C60.018 66.6142 56.2664 65.625 52.9784 63.8786L43.6952 66.5184C43.2638 66.6407 42.8075 66.6456 42.3735 66.5326C41.9396 66.4196 41.5436 66.1928 41.2266 65.8757C40.9096 65.5585 40.683 65.1624 40.5702 64.7284C40.4575 64.2943 40.4626 63.8381 40.5852 63.4067L43.225 54.1252C41.4207 50.7321 40.4794 46.947 40.4844 43.104ZM53.9188 38.0661C53.9188 38.5114 54.0957 38.9386 54.4106 39.2535C54.7256 39.5684 55.1527 39.7454 55.5981 39.7454H72.3911C72.8365 39.7454 73.2636 39.5684 73.5785 39.2535C73.8935 38.9386 74.0704 38.5114 74.0704 38.0661C74.0704 37.6207 73.8935 37.1935 73.5785 36.8786C73.2636 36.5637 72.8365 36.3868 72.3911 36.3868H55.5981C55.1527 36.3868 54.7256 36.5637 54.4106 36.8786C54.0957 37.1935 53.9188 37.6207 53.9188 38.0661ZM55.5981 46.4626C55.1527 46.4626 54.7256 46.6395 54.4106 46.9544C54.0957 47.2693 53.9188 47.6965 53.9188 48.1419C53.9188 48.5872 54.0957 49.0144 54.4106 49.3293C54.7256 49.6442 55.1527 49.8212 55.5981 49.8212H65.6739C66.1193 49.8212 66.5464 49.6442 66.8613 49.3293C67.1763 49.0144 67.3532 48.5872 67.3532 48.1419C67.3532 47.6965 67.1763 47.2693 66.8613 46.9544C66.5464 46.6395 66.1193 46.4626 65.6739 46.4626H55.5981Z" fill="white"/>
<path d="M32.5996 94.825C32.5996 93.4717 32.8702 91.4417 33.4116 88.735H29.1196L27.5246 97H21.4636L25.1466 77.86H31.2656L29.5836 86.415H33.8756L35.4706 77.86H41.5896C41.3189 79.2907 41.0096 80.8083 40.6616 82.413L39.6756 87.14C38.9409 90.8133 38.5736 93.4523 38.5736 95.057C38.5736 95.7143 38.6799 96.2267 38.8926 96.594C37.9259 97.2513 36.8722 97.58 35.7316 97.58C34.6102 97.58 33.8079 97.3093 33.3246 96.768C32.8412 96.2267 32.5996 95.579 32.5996 94.825ZM54.0315 92.099C54.5148 92.4277 54.7565 92.9593 54.7565 93.694C54.7565 94.4093 54.5728 94.999 54.2055 95.463C53.8381 95.927 53.3548 96.3137 52.7555 96.623C51.5181 97.261 50.2325 97.58 48.8985 97.58C47.5645 97.58 46.5011 97.435 45.7085 97.145C44.9351 96.855 44.2875 96.4393 43.7655 95.898C42.7408 94.8733 42.2285 93.4233 42.2285 91.548C42.2285 88.6287 43.0211 86.2797 44.6065 84.501C46.3078 82.587 48.6375 81.63 51.5955 81.63C53.4321 81.63 54.8048 82.0167 55.7135 82.79C56.3901 83.37 56.7285 84.1337 56.7285 85.081C56.7285 88.4837 53.7898 90.185 47.9125 90.185C47.8351 90.6877 47.7965 91.1517 47.7965 91.577C47.7965 92.4663 47.9898 93.085 48.3765 93.433C48.7825 93.7617 49.3528 93.926 50.0875 93.926C50.8221 93.926 51.5761 93.7617 52.3495 93.433C53.1421 93.085 53.7028 92.6403 54.0315 92.099ZM48.1155 88.938C49.4881 88.938 50.5708 88.5127 51.3635 87.662C52.1561 86.85 52.5525 85.7963 52.5525 84.501C52.5525 84.0563 52.4655 83.718 52.2915 83.486C52.1368 83.2347 51.8951 83.109 51.5665 83.109C51.2378 83.109 50.9285 83.1767 50.6385 83.312C50.3678 83.428 50.0875 83.6987 49.7975 84.124C49.0821 85.0907 48.5215 86.6953 48.1155 88.938ZM66.943 93.723C65.9377 94.767 64.5167 95.289 62.68 95.289C60.3794 95.289 58.9874 94.448 58.504 92.766C58.3494 92.2633 58.272 91.7317 58.272 91.171C58.272 90.6103 58.33 90.04 58.446 89.46L59.809 82.21L65.696 81.63L64.101 90.069C64.0624 90.3203 64.014 90.5813 63.956 90.852C63.898 91.1227 63.869 91.403 63.869 91.693C63.869 91.9637 63.9174 92.1957 64.014 92.389C64.1107 92.563 64.2267 92.708 64.362 92.824C64.594 92.9787 64.913 93.056 65.319 93.056C65.7444 93.056 66.131 92.8047 66.479 92.302C66.8464 91.7993 67.117 91.113 67.291 90.243L68.886 82.21L74.599 81.63L72.424 93.027C71.7087 96.739 70.6164 99.3297 69.147 100.799C68.393 101.553 67.523 102.075 66.537 102.365C65.5704 102.674 64.4587 102.829 63.202 102.829C61.172 102.829 59.577 102.51 58.417 101.872C57.257 101.234 56.677 100.383 56.677 99.32C56.677 98.5273 56.9767 97.899 57.576 97.435C58.1754 96.9903 58.939 96.768 59.867 96.768C60.679 96.768 61.3944 96.942 62.013 97.29C62.3804 97.5027 62.651 97.7443 62.825 98.015C62.3804 98.4017 62.158 98.914 62.158 99.552C62.158 100.403 62.5447 100.828 63.318 100.828C64.594 100.828 65.5994 99.3587 66.334 96.42C66.5467 95.55 66.7497 94.651 66.943 93.723ZM84.7828 81.63C85.4788 81.63 86.0975 81.7073 86.6388 81.862C86.6581 81.7847 86.6871 81.6397 86.7258 81.427L86.8708 80.528C86.9481 80.1413 87.0448 79.629 87.1608 78.991L87.6248 76.7L93.3958 76.12L90.1768 92.94C90.1575 93.056 90.1478 93.2107 90.1478 93.404V93.868C90.1478 94.2933 90.2541 94.6703 90.4668 94.999C90.6795 95.3083 90.9598 95.463 91.3078 95.463C90.9211 96.3717 90.1381 97.0193 88.9588 97.406C88.5528 97.522 88.0598 97.58 87.4798 97.58C86.9191 97.58 86.3778 97.4253 85.8558 97.116C85.3338 96.826 84.9955 96.4297 84.8408 95.927C84.5315 96.4297 84.0675 96.826 83.4488 97.116C82.8301 97.4253 82.0665 97.58 81.1578 97.58C80.2685 97.58 79.4468 97.464 78.6928 97.232C77.9581 97 77.3588 96.6327 76.8948 96.13C76.0441 95.144 75.6188 93.5297 75.6188 91.287C75.6188 88.387 76.4695 86.0573 78.1708 84.298C79.8721 82.5193 82.0761 81.63 84.7828 81.63ZM84.5798 83.37C83.8645 83.37 83.3135 83.7567 82.9268 84.53C82.5401 85.3033 82.1438 86.647 81.7378 88.561C81.3511 90.475 81.1578 92.2923 81.1578 94.013C81.1578 95.1923 81.5058 95.782 82.2018 95.782C82.8205 95.782 83.3425 95.4727 83.7678 94.854C84.2125 94.2353 84.5218 93.4137 84.6958 92.389L86.2618 83.892C85.8558 83.544 85.2951 83.37 84.5798 83.37ZM100.733 95.405C100.133 96.855 98.8768 97.58 96.9628 97.58C95.9768 97.58 95.1745 97.2417 94.5558 96.565C94.0338 95.9657 93.7728 95.3663 93.7728 94.767C93.7728 93.201 94.1305 90.8907 94.8458 87.836L95.9188 82.21L101.806 81.63L100.037 90.794C99.7081 92.2247 99.5438 93.1913 99.5438 93.694C99.5438 94.796 99.9401 95.3663 100.733 95.405ZM96.4408 78.179C96.4408 77.425 96.7501 76.845 97.3688 76.439C98.0068 76.033 98.7801 75.83 99.6888 75.83C100.597 75.83 101.322 76.033 101.864 76.439C102.424 76.845 102.705 77.425 102.705 78.179C102.705 78.933 102.395 79.5033 101.777 79.89C101.177 80.2767 100.423 80.47 99.5148 80.47C98.6061 80.47 97.8618 80.2767 97.2818 79.89C96.7211 79.5033 96.4408 78.933 96.4408 78.179Z" fill="white"/>
</svg>
