<svg width="48" height="48" viewBox="0 0 48 48" fill="none" xmlns="http://www.w3.org/2000/svg">
<rect width="48" height="48" fill="#D4B6A6"/>
<path d="M15.1816 16.164C15.1816 11.2949 19.1288 7.34766 23.998 7.34766C28.8671 7.34766 32.8143 11.2949 32.8143 16.164C32.8143 21.0331 28.8671 24.9803 23.998 24.9803C22.5068 24.9803 21.0999 24.6094 19.8669 23.9545L16.3857 24.9444C16.2239 24.9903 16.0528 24.9921 15.8901 24.9497C15.7273 24.9074 15.5789 24.8223 15.46 24.7034C15.3411 24.5844 15.2561 24.4359 15.2138 24.2731C15.1716 24.1104 15.1735 23.9393 15.2194 23.7775L16.2094 20.2969C15.5328 19.0245 15.1798 17.6051 15.1816 16.164ZM20.2195 14.2748C20.2195 14.4418 20.2859 14.602 20.404 14.7201C20.5221 14.8382 20.6823 14.9045 20.8493 14.9045H27.1467C27.3137 14.9045 27.4739 14.8382 27.5919 14.7201C27.71 14.602 27.7764 14.4418 27.7764 14.2748C27.7764 14.1078 27.71 13.9476 27.5919 13.8295C27.4739 13.7114 27.3137 13.645 27.1467 13.645H20.8493C20.6823 13.645 20.5221 13.7114 20.404 13.8295C20.2859 13.9476 20.2195 14.1078 20.2195 14.2748ZM20.8493 17.4235C20.6823 17.4235 20.5221 17.4898 20.404 17.6079C20.2859 17.726 20.2195 17.8862 20.2195 18.0532C20.2195 18.2202 20.2859 18.3804 20.404 18.4985C20.5221 18.6166 20.6823 18.6829 20.8493 18.6829H24.6277C24.7947 18.6829 24.9549 18.6166 25.073 18.4985C25.1911 18.3804 25.2574 18.2202 25.2574 18.0532C25.2574 17.8862 25.1911 17.726 25.073 17.6079C24.9549 17.4898 24.7947 17.4235 24.6277 17.4235H20.8493Z" fill="white"/>
<path d="M13.1119 35.25C13.1119 34.7833 13.2052 34.0833 13.3919 33.15H11.9119L11.3619 36H9.27191L10.5419 29.4H12.6519L12.0719 32.35H13.5519L14.1019 29.4H16.2119C16.1186 29.8933 16.0119 30.4167 15.8919 30.97L15.5519 32.6C15.2986 33.8667 15.1719 34.7767 15.1719 35.33C15.1719 35.5567 15.2086 35.7333 15.2819 35.86C14.9486 36.0867 14.5852 36.2 14.1919 36.2C13.8052 36.2 13.5286 36.1067 13.3619 35.92C13.1952 35.7333 13.1119 35.51 13.1119 35.25ZM20.5022 34.31C20.6689 34.4233 20.7522 34.6067 20.7522 34.86C20.7522 35.1067 20.6889 35.31 20.5622 35.47C20.4356 35.63 20.2689 35.7633 20.0622 35.87C19.6356 36.09 19.1922 36.2 18.7322 36.2C18.2722 36.2 17.9056 36.15 17.6322 36.05C17.3656 35.95 17.1422 35.8067 16.9622 35.62C16.6089 35.2667 16.4322 34.7667 16.4322 34.12C16.4322 33.1133 16.7056 32.3033 17.2522 31.69C17.8389 31.03 18.6422 30.7 19.6622 30.7C20.2956 30.7 20.7689 30.8333 21.0822 31.1C21.3156 31.3 21.4322 31.5633 21.4322 31.89C21.4322 33.0633 20.4189 33.65 18.3922 33.65C18.3656 33.8233 18.3522 33.9833 18.3522 34.13C18.3522 34.4367 18.4189 34.65 18.5522 34.77C18.6922 34.8833 18.8889 34.94 19.1422 34.94C19.3956 34.94 19.6556 34.8833 19.9222 34.77C20.1956 34.65 20.3889 34.4967 20.5022 34.31ZM18.4622 33.22C18.9356 33.22 19.3089 33.0733 19.5822 32.78C19.8556 32.5 19.9922 32.1367 19.9922 31.69C19.9922 31.5367 19.9622 31.42 19.9022 31.34C19.8489 31.2533 19.7656 31.21 19.6522 31.21C19.5389 31.21 19.4322 31.2333 19.3322 31.28C19.2389 31.32 19.1422 31.4133 19.0422 31.56C18.7956 31.8933 18.6022 32.4467 18.4622 33.22ZM24.9545 34.87C24.6078 35.23 24.1178 35.41 23.4845 35.41C22.6912 35.41 22.2112 35.12 22.0445 34.54C21.9912 34.3667 21.9645 34.1833 21.9645 33.99C21.9645 33.7967 21.9845 33.6 22.0245 33.4L22.4945 30.9L24.5245 30.7L23.9745 33.61C23.9612 33.6967 23.9445 33.7867 23.9245 33.88C23.9045 33.9733 23.8945 34.07 23.8945 34.17C23.8945 34.2633 23.9112 34.3433 23.9445 34.41C23.9778 34.47 24.0178 34.52 24.0645 34.56C24.1445 34.6133 24.2545 34.64 24.3945 34.64C24.5412 34.64 24.6745 34.5533 24.7945 34.38C24.9212 34.2067 25.0145 33.97 25.0745 33.67L25.6245 30.9L27.5945 30.7L26.8445 34.63C26.5978 35.91 26.2212 36.8033 25.7145 37.31C25.4545 37.57 25.1545 37.75 24.8145 37.85C24.4812 37.9567 24.0978 38.01 23.6645 38.01C22.9645 38.01 22.4145 37.9 22.0145 37.68C21.6145 37.46 21.4145 37.1667 21.4145 36.8C21.4145 36.5267 21.5178 36.31 21.7245 36.15C21.9312 35.9967 22.1945 35.92 22.5145 35.92C22.7945 35.92 23.0412 35.98 23.2545 36.1C23.3812 36.1733 23.4745 36.2567 23.5345 36.35C23.3812 36.4833 23.3045 36.66 23.3045 36.88C23.3045 37.1733 23.4378 37.32 23.7045 37.32C24.1445 37.32 24.4912 36.8133 24.7445 35.8C24.8178 35.5 24.8878 35.19 24.9545 34.87ZM31.1061 30.7C31.3461 30.7 31.5595 30.7267 31.7461 30.78C31.7528 30.7533 31.7628 30.7033 31.7761 30.63L31.8261 30.32C31.8528 30.1867 31.8861 30.01 31.9261 29.79L32.0861 29L34.0761 28.8L32.9661 34.6C32.9595 34.64 32.9561 34.6933 32.9561 34.76V34.92C32.9561 35.0667 32.9928 35.1967 33.0661 35.31C33.1395 35.4167 33.2361 35.47 33.3561 35.47C33.2228 35.7833 32.9528 36.0067 32.5461 36.14C32.4061 36.18 32.2361 36.2 32.0361 36.2C31.8428 36.2 31.6561 36.1467 31.4761 36.04C31.2961 35.94 31.1795 35.8033 31.1261 35.63C31.0195 35.8033 30.8595 35.94 30.6461 36.04C30.4328 36.1467 30.1695 36.2 29.8561 36.2C29.5495 36.2 29.2661 36.16 29.0061 36.08C28.7528 36 28.5461 35.8733 28.3861 35.7C28.0928 35.36 27.9461 34.8033 27.9461 34.03C27.9461 33.03 28.2395 32.2267 28.8261 31.62C29.4128 31.0067 30.1728 30.7 31.1061 30.7ZM31.0361 31.3C30.7895 31.3 30.5995 31.4333 30.4661 31.7C30.3328 31.9667 30.1961 32.43 30.0561 33.09C29.9228 33.75 29.8561 34.3767 29.8561 34.97C29.8561 35.3767 29.9761 35.58 30.2161 35.58C30.4295 35.58 30.6095 35.4733 30.7561 35.26C30.9095 35.0467 31.0161 34.7633 31.0761 34.41L31.6161 31.48C31.4761 31.36 31.2828 31.3 31.0361 31.3ZM36.6061 35.45C36.3995 35.95 35.9661 36.2 35.3061 36.2C34.9661 36.2 34.6895 36.0833 34.4761 35.85C34.2961 35.6433 34.2061 35.4367 34.2061 35.23C34.2061 34.69 34.3295 33.8933 34.5761 32.84L34.9461 30.9L36.9761 30.7L36.3661 33.86C36.2528 34.3533 36.1961 34.6867 36.1961 34.86C36.1961 35.24 36.3328 35.4367 36.6061 35.45ZM35.1261 29.51C35.1261 29.25 35.2328 29.05 35.4461 28.91C35.6661 28.77 35.9328 28.7 36.2461 28.7C36.5595 28.7 36.8095 28.77 36.9961 28.91C37.1895 29.05 37.2861 29.25 37.2861 29.51C37.2861 29.77 37.1795 29.9667 36.9661 30.1C36.7595 30.2333 36.4995 30.3 36.1861 30.3C35.8728 30.3 35.6161 30.2333 35.4161 30.1C35.2228 29.9667 35.1261 29.77 35.1261 29.51Z" fill="white"/>
</svg>
