<svg width="32" height="32" viewBox="0 0 32 32" fill="none" xmlns="http://www.w3.org/2000/svg">
<rect width="32" height="32" fill="#D4B6A6"/>
<path d="M10.1211 10.776C10.1211 7.5299 12.7526 4.89844 15.9986 4.89844C19.2447 4.89844 21.8762 7.5299 21.8762 10.776C21.8762 14.0221 19.2447 16.6535 15.9986 16.6535C15.0045 16.6535 14.0666 16.4063 13.2446 15.9696L10.9238 16.6296C10.8159 16.6602 10.7019 16.6614 10.5934 16.6332C10.4849 16.6049 10.3859 16.5482 10.3066 16.4689C10.2274 16.3896 10.1707 16.2906 10.1426 16.1821C10.1144 16.0736 10.1157 15.9595 10.1463 15.8517L10.8063 13.5313C10.3552 12.683 10.1199 11.7367 10.1211 10.776ZM13.4797 9.51651C13.4797 9.62786 13.5239 9.73464 13.6027 9.81337C13.6814 9.89211 13.7882 9.93634 13.8995 9.93634H18.0978C18.2091 9.93634 18.3159 9.89211 18.3946 9.81337C18.4734 9.73464 18.5176 9.62786 18.5176 9.51651C18.5176 9.40517 18.4734 9.29838 18.3946 9.21965C18.3159 9.14092 18.2091 9.09669 18.0978 9.09669H13.8995C13.7882 9.09669 13.6814 9.14092 13.6027 9.21965C13.5239 9.29838 13.4797 9.40517 13.4797 9.51651ZM13.8995 11.6156C13.7882 11.6156 13.6814 11.6599 13.6027 11.7386C13.5239 11.8173 13.4797 11.9241 13.4797 12.0355C13.4797 12.1468 13.5239 12.2536 13.6027 12.3323C13.6814 12.4111 13.7882 12.4553 13.8995 12.4553H16.4185C16.5298 12.4553 16.6366 12.4111 16.7153 12.3323C16.7941 12.2536 16.8383 12.1468 16.8383 12.0355C16.8383 11.9241 16.7941 11.8173 16.7153 11.7386C16.6366 11.6599 16.5298 11.6156 16.4185 11.6156H13.8995Z" fill="white"/>
<path d="M8.40334 23.475C8.40334 23.1483 8.46867 22.6583 8.59934 22.005H7.56334L7.17834 24H5.71534L6.60434 19.38H8.08134L7.67534 21.445H8.71134L9.09634 19.38H10.5733C10.508 19.7253 10.4333 20.0917 10.3493 20.479L10.1113 21.62C9.93401 22.5067 9.84534 23.1437 9.84534 23.531C9.84534 23.6897 9.87101 23.8133 9.92234 23.902C9.68901 24.0607 9.43467 24.14 9.15934 24.14C8.88867 24.14 8.69501 24.0747 8.57834 23.944C8.46167 23.8133 8.40334 23.657 8.40334 23.475ZM13.5766 22.817C13.6932 22.8963 13.7516 23.0247 13.7516 23.202C13.7516 23.3747 13.7072 23.517 13.6186 23.629C13.5299 23.741 13.4132 23.8343 13.2686 23.909C12.9699 24.063 12.6596 24.14 12.3376 24.14C12.0156 24.14 11.7589 24.105 11.5676 24.035C11.3809 23.965 11.2246 23.8647 11.0986 23.734C10.8512 23.4867 10.7276 23.1367 10.7276 22.684C10.7276 21.9793 10.9189 21.4123 11.3016 20.983C11.7122 20.521 12.2746 20.29 12.9886 20.29C13.4319 20.29 13.7632 20.3833 13.9826 20.57C14.1459 20.71 14.2276 20.8943 14.2276 21.123C14.2276 21.9443 13.5182 22.355 12.0996 22.355C12.0809 22.4763 12.0716 22.5883 12.0716 22.691C12.0716 22.9057 12.1182 23.055 12.2116 23.139C12.3096 23.2183 12.4472 23.258 12.6246 23.258C12.8019 23.258 12.9839 23.2183 13.1706 23.139C13.3619 23.055 13.4972 22.9477 13.5766 22.817ZM12.1486 22.054C12.4799 22.054 12.7412 21.9513 12.9326 21.746C13.1239 21.55 13.2196 21.2957 13.2196 20.983C13.2196 20.8757 13.1986 20.794 13.1566 20.738C13.1192 20.6773 13.0609 20.647 12.9816 20.647C12.9022 20.647 12.8276 20.6633 12.7576 20.696C12.6922 20.724 12.6246 20.7893 12.5546 20.892C12.3819 21.1253 12.2466 21.5127 12.1486 22.054ZM16.6931 23.209C16.4505 23.461 16.1075 23.587 15.6641 23.587C15.1088 23.587 14.7728 23.384 14.6561 22.978C14.6188 22.8567 14.6001 22.7283 14.6001 22.593C14.6001 22.4577 14.6141 22.32 14.6421 22.18L14.9711 20.43L16.3921 20.29L16.0071 22.327C15.9978 22.3877 15.9861 22.4507 15.9721 22.516C15.9581 22.5813 15.9511 22.649 15.9511 22.719C15.9511 22.7843 15.9628 22.8403 15.9861 22.887C16.0095 22.929 16.0375 22.964 16.0701 22.992C16.1261 23.0293 16.2031 23.048 16.3011 23.048C16.4038 23.048 16.4971 22.9873 16.5811 22.866C16.6698 22.7447 16.7351 22.579 16.7771 22.369L17.1621 20.43L18.5411 20.29L18.0161 23.041C17.8435 23.937 17.5798 24.5623 17.2251 24.917C17.0431 25.099 16.8331 25.225 16.5951 25.295C16.3618 25.3697 16.0935 25.407 15.7901 25.407C15.3001 25.407 14.9151 25.33 14.6351 25.176C14.3551 25.022 14.2151 24.8167 14.2151 24.56C14.2151 24.3687 14.2875 24.217 14.4321 24.105C14.5768 23.9977 14.7611 23.944 14.9851 23.944C15.1811 23.944 15.3538 23.986 15.5031 24.07C15.5918 24.1213 15.6571 24.1797 15.6991 24.245C15.5918 24.3383 15.5381 24.462 15.5381 24.616C15.5381 24.8213 15.6315 24.924 15.8181 24.924C16.1261 24.924 16.3688 24.5693 16.5461 23.86C16.5975 23.65 16.6465 23.433 16.6931 23.209ZM20.9993 20.29C21.1673 20.29 21.3166 20.3087 21.4473 20.346C21.452 20.3273 21.459 20.2923 21.4683 20.241L21.5033 20.024C21.522 19.9307 21.5453 19.807 21.5733 19.653L21.6853 19.1L23.0783 18.96L22.3013 23.02C22.2966 23.048 22.2943 23.0853 22.2943 23.132V23.244C22.2943 23.3467 22.32 23.4377 22.3713 23.517C22.4226 23.5917 22.4903 23.629 22.5743 23.629C22.481 23.8483 22.292 24.0047 22.0073 24.098C21.9093 24.126 21.7903 24.14 21.6503 24.14C21.515 24.14 21.3843 24.1027 21.2583 24.028C21.1323 23.958 21.0506 23.8623 21.0133 23.741C20.9386 23.8623 20.8266 23.958 20.6773 24.028C20.528 24.1027 20.3436 24.14 20.1243 24.14C19.9096 24.14 19.7113 24.112 19.5293 24.056C19.352 24 19.2073 23.9113 19.0953 23.79C18.89 23.552 18.7873 23.1623 18.7873 22.621C18.7873 21.921 18.9926 21.3587 19.4033 20.934C19.814 20.5047 20.346 20.29 20.9993 20.29ZM20.9503 20.71C20.7776 20.71 20.6446 20.8033 20.5513 20.99C20.458 21.1767 20.3623 21.501 20.2643 21.963C20.171 22.425 20.1243 22.8637 20.1243 23.279C20.1243 23.5637 20.2083 23.706 20.3763 23.706C20.5256 23.706 20.6516 23.6313 20.7543 23.482C20.8616 23.3327 20.9363 23.1343 20.9783 22.887L21.3563 20.836C21.2583 20.752 21.123 20.71 20.9503 20.71ZM24.8493 23.615C24.7046 23.965 24.4013 24.14 23.9393 24.14C23.7013 24.14 23.5076 24.0583 23.3583 23.895C23.2323 23.7503 23.1693 23.6057 23.1693 23.461C23.1693 23.083 23.2556 22.5253 23.4283 21.788L23.6873 20.43L25.1083 20.29L24.6813 22.502C24.602 22.8473 24.5623 23.0807 24.5623 23.202C24.5623 23.468 24.658 23.6057 24.8493 23.615ZM23.8133 19.457C23.8133 19.275 23.888 19.135 24.0373 19.037C24.1913 18.939 24.378 18.89 24.5973 18.89C24.8166 18.89 24.9916 18.939 25.1223 19.037C25.2576 19.135 25.3253 19.275 25.3253 19.457C25.3253 19.639 25.2506 19.7767 25.1013 19.87C24.9566 19.9633 24.7746 20.01 24.5553 20.01C24.336 20.01 24.1563 19.9633 24.0163 19.87C23.881 19.7767 23.8133 19.639 23.8133 19.457Z" fill="white"/>
</svg>
