<svg width="24" height="24" viewBox="0 0 24 24" fill="none" xmlns="http://www.w3.org/2000/svg">
<rect width="24" height="24" fill="#D4B6A6"/>
<path d="M7.59082 8.08199C7.59082 5.64743 9.56442 3.67383 11.999 3.67383C14.4335 3.67383 16.4071 5.64743 16.4071 8.08199C16.4071 10.5166 14.4335 12.4902 11.999 12.4902C11.2534 12.4902 10.55 12.3047 9.93345 11.9772L8.19285 12.4722C8.11196 12.4951 8.02641 12.4961 7.94504 12.4749C7.86367 12.4537 7.78943 12.4112 7.72999 12.3517C7.67055 12.2922 7.62806 12.218 7.60692 12.1366C7.58578 12.0552 7.58674 11.9696 7.60972 11.8888L8.10469 10.1485C7.76638 9.51227 7.58989 8.80256 7.59082 8.08199ZM10.1098 7.13738C10.1098 7.22089 10.1429 7.30098 10.202 7.36003C10.261 7.41908 10.3411 7.45225 10.4246 7.45225H13.5733C13.6568 7.45225 13.7369 7.41908 13.796 7.36003C13.855 7.30098 13.8882 7.22089 13.8882 7.13738C13.8882 7.05388 13.855 6.97379 13.796 6.91474C13.7369 6.85569 13.6568 6.82252 13.5733 6.82252H10.4246C10.3411 6.82252 10.261 6.85569 10.202 6.91474C10.1429 6.97379 10.1098 7.05388 10.1098 7.13738ZM10.4246 8.71173C10.3411 8.71173 10.261 8.7449 10.202 8.80395C10.1429 8.863 10.1098 8.94309 10.1098 9.0266C10.1098 9.11011 10.1429 9.19019 10.202 9.24924C10.261 9.30829 10.3411 9.34147 10.4246 9.34147H12.3139C12.3974 9.34147 12.4775 9.30829 12.5365 9.24924C12.5955 9.19019 12.6287 9.11011 12.6287 9.0266C12.6287 8.94309 12.5955 8.863 12.5365 8.80395C12.4775 8.7449 12.3974 8.71173 12.3139 8.71173H10.4246Z" fill="white"/>
<path d="M6.93084 17.6035C6.93084 17.3702 6.9775 17.0202 7.07084 16.5535H6.33084L6.05584 17.9785H5.01084L5.64584 14.6785H6.70084L6.41084 16.1535H7.15084L7.42584 14.6785H8.48084C8.43417 14.9252 8.38084 15.1868 8.32084 15.4635L8.15084 16.2785C8.02417 16.9118 7.96084 17.3668 7.96084 17.6435C7.96084 17.7568 7.97917 17.8452 8.01584 17.9085C7.84917 18.0218 7.6675 18.0785 7.47084 18.0785C7.2775 18.0785 7.13917 18.0318 7.05584 17.9385C6.9725 17.8452 6.93084 17.7335 6.93084 17.6035ZM10.626 17.1335C10.7093 17.1902 10.751 17.2818 10.751 17.4085C10.751 17.5318 10.7193 17.6335 10.656 17.7135C10.5927 17.7935 10.5093 17.8602 10.406 17.9135C10.1927 18.0235 9.97099 18.0785 9.74099 18.0785C9.51099 18.0785 9.32766 18.0535 9.19099 18.0035C9.05766 17.9535 8.94599 17.8818 8.85599 17.7885C8.67933 17.6118 8.59099 17.3618 8.59099 17.0385C8.59099 16.5352 8.72766 16.1302 9.00099 15.8235C9.29433 15.4935 9.69599 15.3285 10.206 15.3285C10.5227 15.3285 10.7593 15.3952 10.916 15.5285C11.0327 15.6285 11.091 15.7602 11.091 15.9235C11.091 16.5102 10.5843 16.8035 9.57099 16.8035C9.55766 16.8902 9.55099 16.9702 9.55099 17.0435C9.55099 17.1968 9.58433 17.3035 9.65099 17.3635C9.72099 17.4202 9.81933 17.4485 9.94599 17.4485C10.0727 17.4485 10.2027 17.4202 10.336 17.3635C10.4727 17.3035 10.5693 17.2268 10.626 17.1335ZM9.60599 16.5885C9.84266 16.5885 10.0293 16.5152 10.166 16.3685C10.3027 16.2285 10.371 16.0468 10.371 15.8235C10.371 15.7468 10.356 15.6885 10.326 15.6485C10.2993 15.6052 10.2577 15.5835 10.201 15.5835C10.1443 15.5835 10.091 15.5952 10.041 15.6185C9.99433 15.6385 9.94599 15.6852 9.89599 15.7585C9.77266 15.9252 9.67599 16.2018 9.60599 16.5885ZM12.8521 17.4135C12.6788 17.5935 12.4338 17.6835 12.1171 17.6835C11.7205 17.6835 11.4805 17.5385 11.3971 17.2485C11.3705 17.1618 11.3571 17.0702 11.3571 16.9735C11.3571 16.8768 11.3671 16.7785 11.3871 16.6785L11.6221 15.4285L12.6371 15.3285L12.3621 16.7835C12.3555 16.8268 12.3471 16.8718 12.3371 16.9185C12.3271 16.9652 12.3221 17.0135 12.3221 17.0635C12.3221 17.1102 12.3305 17.1502 12.3471 17.1835C12.3638 17.2135 12.3838 17.2385 12.4071 17.2585C12.4471 17.2852 12.5021 17.2985 12.5721 17.2985C12.6455 17.2985 12.7121 17.2552 12.7721 17.1685C12.8355 17.0818 12.8821 16.9635 12.9121 16.8135L13.1871 15.4285L14.1721 15.3285L13.7971 17.2935C13.6738 17.9335 13.4855 18.3802 13.2321 18.6335C13.1021 18.7635 12.9521 18.8535 12.7821 18.9035C12.6155 18.9568 12.4238 18.9835 12.2071 18.9835C11.8571 18.9835 11.5821 18.9285 11.3821 18.8185C11.1821 18.7085 11.0821 18.5618 11.0821 18.3785C11.0821 18.2418 11.1338 18.1335 11.2371 18.0535C11.3405 17.9768 11.4721 17.9385 11.6321 17.9385C11.7721 17.9385 11.8955 17.9685 12.0021 18.0285C12.0655 18.0652 12.1121 18.1068 12.1421 18.1535C12.0655 18.2202 12.0271 18.3085 12.0271 18.4185C12.0271 18.5652 12.0938 18.6385 12.2271 18.6385C12.4471 18.6385 12.6205 18.3852 12.7471 17.8785C12.7838 17.7285 12.8188 17.5735 12.8521 17.4135ZM15.9279 15.3285C16.0479 15.3285 16.1546 15.3418 16.2479 15.3685C16.2513 15.3552 16.2563 15.3302 16.2629 15.2935L16.2879 15.1385C16.3013 15.0718 16.3179 14.9835 16.3379 14.8735L16.4179 14.4785L17.4129 14.3785L16.8579 17.2785C16.8546 17.2985 16.8529 17.3252 16.8529 17.3585V17.4385C16.8529 17.5118 16.8713 17.5768 16.9079 17.6335C16.9446 17.6868 16.9929 17.7135 17.0529 17.7135C16.9863 17.8702 16.8513 17.9818 16.6479 18.0485C16.5779 18.0685 16.4929 18.0785 16.3929 18.0785C16.2963 18.0785 16.2029 18.0518 16.1129 17.9985C16.0229 17.9485 15.9646 17.8802 15.9379 17.7935C15.8846 17.8802 15.8046 17.9485 15.6979 17.9985C15.5913 18.0518 15.4596 18.0785 15.3029 18.0785C15.1496 18.0785 15.0079 18.0585 14.8779 18.0185C14.7513 17.9785 14.6479 17.9152 14.5679 17.8285C14.4213 17.6585 14.3479 17.3802 14.3479 16.9935C14.3479 16.4935 14.4946 16.0918 14.7879 15.7885C15.0813 15.4818 15.4613 15.3285 15.9279 15.3285ZM15.8929 15.6285C15.7696 15.6285 15.6746 15.6952 15.6079 15.8285C15.5413 15.9618 15.4729 16.1935 15.4029 16.5235C15.3363 16.8535 15.3029 17.1668 15.3029 17.4635C15.3029 17.6668 15.3629 17.7685 15.4829 17.7685C15.5896 17.7685 15.6796 17.7152 15.7529 17.6085C15.8296 17.5018 15.8829 17.3602 15.9129 17.1835L16.1829 15.7185C16.1129 15.6585 16.0163 15.6285 15.8929 15.6285ZM18.6779 17.7035C18.5746 17.9535 18.3579 18.0785 18.0279 18.0785C17.8579 18.0785 17.7196 18.0202 17.6129 17.9035C17.5229 17.8002 17.4779 17.6968 17.4779 17.5935C17.4779 17.3235 17.5396 16.9252 17.6629 16.3985L17.8479 15.4285L18.8629 15.3285L18.5579 16.9085C18.5013 17.1552 18.4729 17.3218 18.4729 17.4085C18.4729 17.5985 18.5413 17.6968 18.6779 17.7035ZM17.9379 14.7335C17.9379 14.6035 17.9913 14.5035 18.0979 14.4335C18.2079 14.3635 18.3413 14.3285 18.4979 14.3285C18.6546 14.3285 18.7796 14.3635 18.8729 14.4335C18.9696 14.5035 19.0179 14.6035 19.0179 14.7335C19.0179 14.8635 18.9646 14.9618 18.8579 15.0285C18.7546 15.0952 18.6246 15.1285 18.4679 15.1285C18.3113 15.1285 18.1829 15.0952 18.0829 15.0285C17.9863 14.9618 17.9379 14.8635 17.9379 14.7335Z" fill="white"/>
</svg>
