<svg width="144" height="144" viewBox="0 0 144 144" fill="none" xmlns="http://www.w3.org/2000/svg">
<rect width="144" height="144" fill="#D4B6A6"/>
<path d="M45.5449 48.4919C45.5449 33.8846 57.3865 22.043 71.9939 22.043C86.6013 22.043 98.4429 33.8846 98.4429 48.4919C98.4429 63.0993 86.6013 74.9409 71.9939 74.9409C67.5203 74.9409 63.2998 73.8282 59.6007 71.8634L49.1571 74.8332C48.6717 74.9708 48.1584 74.9763 47.6702 74.8492C47.182 74.7221 46.7366 74.4669 46.3799 74.1101C46.0233 73.7533 45.7684 73.3077 45.6415 72.8194C45.5147 72.3311 45.5204 71.8178 45.6583 71.3325L48.6281 60.8908C46.5983 57.0736 45.5394 52.8153 45.5449 48.4919ZM60.6586 42.8243C60.6586 43.3254 60.8577 43.8059 61.212 44.1602C61.5663 44.5145 62.0468 44.7135 62.5479 44.7135H81.44C81.941 44.7135 82.4216 44.5145 82.7758 44.1602C83.1301 43.8059 83.3292 43.3254 83.3292 42.8243C83.3292 42.3233 83.1301 41.8427 82.7758 41.4884C82.4216 41.1341 81.941 40.9351 81.44 40.9351H62.5479C62.0468 40.9351 61.5663 41.1341 61.212 41.4884C60.8577 41.8427 60.6586 42.3233 60.6586 42.8243ZM62.5479 52.2704C62.0468 52.2704 61.5663 52.4694 61.212 52.8237C60.8577 53.178 60.6586 53.6585 60.6586 54.1596C60.6586 54.6606 60.8577 55.1412 61.212 55.4955C61.5663 55.8498 62.0468 56.0488 62.5479 56.0488H73.8831C74.3842 56.0488 74.8647 55.8498 75.219 55.4955C75.5733 55.1412 75.7723 54.6606 75.7723 54.1596C75.7723 53.6585 75.5733 53.178 75.219 52.8237C74.8647 52.4694 74.3842 52.2704 73.8831 52.2704H62.5479Z" fill="white"/>
<path d="M37.3081 106.6C37.3081 105.107 37.6068 102.867 38.2041 99.88H33.4681L31.7081 109H25.0201L29.0841 87.88H35.8361L33.9801 97.32H38.7161L40.4761 87.88H47.2281C46.9295 89.4587 46.5881 91.1333 46.2041 92.904L45.1161 98.12C44.3055 102.173 43.9001 105.085 43.9001 106.856C43.9001 107.581 44.0175 108.147 44.2521 108.552C43.1855 109.277 42.0228 109.64 40.7641 109.64C39.5268 109.64 38.6415 109.341 38.1081 108.744C37.5748 108.147 37.3081 107.432 37.3081 106.6ZM60.9571 103.592C61.4905 103.955 61.7571 104.541 61.7571 105.352C61.7571 106.141 61.5545 106.792 61.1491 107.304C60.7438 107.816 60.2105 108.243 59.5491 108.584C58.1838 109.288 56.7651 109.64 55.2931 109.64C53.8211 109.64 52.6478 109.48 51.7731 109.16C50.9198 108.84 50.2051 108.381 49.6291 107.784C48.4985 106.653 47.9331 105.053 47.9331 102.984C47.9331 99.7627 48.8078 97.1707 50.5571 95.208C52.4345 93.096 55.0051 92.04 58.2691 92.04C60.2958 92.04 61.8105 92.4667 62.8131 93.32C63.5598 93.96 63.9331 94.8027 63.9331 95.848C63.9331 99.6027 60.6905 101.48 54.2051 101.48C54.1198 102.035 54.0771 102.547 54.0771 103.016C54.0771 103.997 54.2905 104.68 54.7171 105.064C55.1651 105.427 55.7945 105.608 56.6051 105.608C57.4158 105.608 58.2478 105.427 59.1011 105.064C59.9758 104.68 60.5945 104.189 60.9571 103.592ZM54.4291 100.104C55.9438 100.104 57.1385 99.6347 58.0131 98.696C58.8878 97.8 59.3251 96.6373 59.3251 95.208C59.3251 94.7173 59.2291 94.344 59.0371 94.088C58.8665 93.8107 58.5998 93.672 58.2371 93.672C57.8745 93.672 57.5331 93.7467 57.2131 93.896C56.9145 94.024 56.6051 94.3227 56.2851 94.792C55.4958 95.8587 54.8771 97.6293 54.4291 100.104ZM75.2044 105.384C74.095 106.536 72.527 107.112 70.5004 107.112C67.9617 107.112 66.4257 106.184 65.8924 104.328C65.7217 103.773 65.6364 103.187 65.6364 102.568C65.6364 101.949 65.7004 101.32 65.8284 100.68L67.3324 92.68L73.8284 92.04L72.0684 101.352C72.0257 101.629 71.9724 101.917 71.9084 102.216C71.8444 102.515 71.8124 102.824 71.8124 103.144C71.8124 103.443 71.8657 103.699 71.9724 103.912C72.079 104.104 72.207 104.264 72.3564 104.392C72.6124 104.563 72.9644 104.648 73.4124 104.648C73.8817 104.648 74.3084 104.371 74.6924 103.816C75.0977 103.261 75.3964 102.504 75.5884 101.544L77.3484 92.68L83.6524 92.04L81.2524 104.616C80.463 108.712 79.2577 111.571 77.6364 113.192C76.8044 114.024 75.8444 114.6 74.7564 114.92C73.6897 115.261 72.463 115.432 71.0764 115.432C68.8364 115.432 67.0764 115.08 65.7964 114.376C64.5164 113.672 63.8764 112.733 63.8764 111.56C63.8764 110.685 64.207 109.992 64.8684 109.48C65.5297 108.989 66.3724 108.744 67.3964 108.744C68.2924 108.744 69.0817 108.936 69.7644 109.32C70.1697 109.555 70.4684 109.821 70.6604 110.12C70.1697 110.547 69.9244 111.112 69.9244 111.816C69.9244 112.755 70.351 113.224 71.2044 113.224C72.6124 113.224 73.7217 111.603 74.5324 108.36C74.767 107.4 74.991 106.408 75.2044 105.384ZM94.8896 92.04C95.6576 92.04 96.3403 92.1253 96.9376 92.296C96.959 92.2107 96.991 92.0507 97.0336 91.816L97.1936 90.824C97.279 90.3973 97.3856 89.832 97.5136 89.128L98.0256 86.6L104.394 85.96L100.842 104.52C100.82 104.648 100.81 104.819 100.81 105.032V105.544C100.81 106.013 100.927 106.429 101.162 106.792C101.396 107.133 101.706 107.304 102.09 107.304C101.663 108.307 100.799 109.021 99.4976 109.448C99.0496 109.576 98.5056 109.64 97.8656 109.64C97.247 109.64 96.6496 109.469 96.0736 109.128C95.4976 108.808 95.1243 108.371 94.9536 107.816C94.6123 108.371 94.1003 108.808 93.4176 109.128C92.735 109.469 91.8923 109.64 90.8896 109.64C89.9083 109.64 89.0016 109.512 88.1696 109.256C87.359 109 86.6976 108.595 86.1856 108.04C85.247 106.952 84.7776 105.171 84.7776 102.696C84.7776 99.496 85.7163 96.9253 87.5936 94.984C89.471 93.0213 91.903 92.04 94.8896 92.04ZM94.6656 93.96C93.8763 93.96 93.2683 94.3867 92.8416 95.24C92.415 96.0933 91.9776 97.576 91.5296 99.688C91.103 101.8 90.8896 103.805 90.8896 105.704C90.8896 107.005 91.2736 107.656 92.0416 107.656C92.7243 107.656 93.3003 107.315 93.7696 106.632C94.2603 105.949 94.6016 105.043 94.7936 103.912L96.5216 94.536C96.0736 94.152 95.455 93.96 94.6656 93.96ZM112.49 107.24C111.828 108.84 110.442 109.64 108.33 109.64C107.242 109.64 106.356 109.267 105.674 108.52C105.098 107.859 104.81 107.197 104.81 106.536C104.81 104.808 105.204 102.259 105.994 98.888L107.178 92.68L113.674 92.04L111.722 102.152C111.359 103.731 111.178 104.797 111.178 105.352C111.178 106.568 111.615 107.197 112.49 107.24ZM107.754 88.232C107.754 87.4 108.095 86.76 108.778 86.312C109.482 85.864 110.335 85.64 111.338 85.64C112.34 85.64 113.14 85.864 113.738 86.312C114.356 86.76 114.666 87.4 114.666 88.232C114.666 89.064 114.324 89.6933 113.642 90.12C112.98 90.5467 112.148 90.76 111.146 90.76C110.143 90.76 109.322 90.5467 108.682 90.12C108.063 89.6933 107.754 89.064 107.754 88.232Z" fill="white"/>
</svg>
