<svg width="16" height="16" viewBox="0 0 16 16" fill="none" xmlns="http://www.w3.org/2000/svg">
<path d="M5.5 6.5C5.89782 6.5 6.27936 6.34196 6.56066 6.06066C6.84196 5.77936 7 5.39782 7 5C7 4.60218 6.84196 4.22064 6.56066 3.93934C6.27936 3.65804 5.89782 3.5 5.5 3.5C5.10218 3.5 4.72064 3.65804 4.43934 3.93934C4.15804 4.22064 4 4.60218 4 5C4 5.39782 4.15804 5.77936 4.43934 6.06066C4.72064 6.34196 5.10218 6.5 5.5 6.5ZM10.5 6.5C10.8978 6.5 11.2794 6.34196 11.5607 6.06066C11.842 5.77936 12 5.39782 12 5C12 4.60218 11.842 4.22064 11.5607 3.93934C11.2794 3.65804 10.8978 3.5 10.5 3.5C10.1022 3.5 9.72064 3.65804 9.43934 3.93934C9.15804 4.22064 9 4.60218 9 5C9 5.39782 9.15804 5.77936 9.43934 6.06066C9.72064 6.34196 10.1022 6.5 10.5 6.5ZM3.5 8C3.5 8 3.5 12.5 8 12.5C12.5 12.5 12.5 8 12.5 8H3.5Z" fill="#76615A"/>
<path d="M2.3815 2.7115C3.6565 1.327 5.5475 0.5 8 0.5C10.4525 0.5 12.343 1.327 13.6175 2.7115C14.886 4.089 15.4995 5.969 15.4995 7.9995C15.4995 10.03 14.886 11.9095 13.6175 13.2875C12.3425 14.672 10.452 15.499 8 15.499C5.548 15.499 3.657 14.672 2.382 13.2875C1.113 11.91 0.5 10.03 0.5 7.9995C0.5 5.969 1.113 4.089 2.3815 2.7115ZM3.1175 3.389C2.0525 4.5445 1.5 6.164 1.5 7.999C1.5 9.834 2.053 11.454 3.1175 12.61C4.1755 13.759 5.784 14.499 7.9995 14.499C10.215 14.499 11.8235 13.759 12.8815 12.61C13.946 11.4545 14.499 9.835 14.499 7.9995C14.499 6.1645 13.946 4.5445 12.8815 3.389C11.8235 2.24 10.215 1.5 8 1.5C5.785 1.5 4.175 2.24 3.1175 3.389Z" fill="#76615A"/>
</svg>
