<svg width="16" height="16" viewBox="0 0 16 16" fill="none" xmlns="http://www.w3.org/2000/svg">
<path d="M8 1H2C1.73478 1 1.48043 1.10536 1.29289 1.29289C1.10536 1.48043 1 1.73478 1 2V8C1 9.8925 1.5715 11.648 2.757 12.935C2.81433 12.9977 2.87333 13.059 2.934 13.119C3.0635 13.0435 3.214 13 3.375 13C3.6 13 3.8135 12.87 3.9235 12.672C3.77169 12.5426 3.62777 12.4041 3.4925 12.2575C2.5115 11.1925 2 9.6975 2 8C2 7.63233 2.02383 7.27517 2.0715 6.9285L6.9335 2.0665C7.28725 2.02199 7.64346 1.99978 8 2C9.892 2 11.302 2.583 12.2745 3.5055C12.3075 3.50217 12.341 3.50033 12.375 3.5C12.699 3.5 13 3.2295 13 2.875C13 2.856 13.0007 2.837 13.002 2.818C11.818 1.6735 10.136 1 8 1ZM2 2H3.207L2 3.207V2ZM4.293 2H5.586L2 5.586V4.293L4.293 2ZM8 15C6.74 15 5.638 14.7655 4.7025 14.3385C5.00155 14.1377 5.25157 13.8721 5.434 13.5615C6.163 13.8425 7.0165 14 8 14C10.049 14 11.5325 13.316 12.5075 12.2575C12.8033 11.9352 13.0569 11.5764 13.262 11.19C13.7837 11.0801 14.2635 10.8244 14.6455 10.4525C14.3575 11.384 13.8925 12.2295 13.243 12.935C12.0515 14.229 10.2855 15 8 15Z" fill="#76615A"/>
<path d="M11.432 6.8645C11.6355 6.593 11.902 6.371 12.2095 6.22C12.1669 6.15683 12.1196 6.09699 12.068 6.041C11.781 5.726 11.348 5.5 10.75 5.5C10.158 5.5 9.7265 5.7155 9.438 6.03C9.164 6.328 9.0535 6.6765 9.0095 6.905C8.99529 6.97012 8.99424 7.03743 9.00642 7.10296C9.01861 7.16849 9.04377 7.23093 9.08043 7.2866C9.11709 7.34226 9.16451 7.39004 9.2199 7.42711C9.27529 7.46419 9.33754 7.48981 9.40298 7.50248C9.46842 7.51515 9.53573 7.5146 9.60096 7.50088C9.66618 7.48715 9.72801 7.46053 9.78279 7.42256C9.83758 7.3846 9.88422 7.33606 9.91998 7.27981C9.95573 7.22356 9.97988 7.16072 9.991 7.095C10.015 6.972 10.07 6.82 10.1745 6.7065C10.2645 6.6085 10.4235 6.5 10.75 6.5C11.071 6.5 11.2345 6.611 11.3285 6.7145C11.3715 6.761 11.4055 6.813 11.432 6.8645ZM14.9105 6.7315C14.6019 6.39399 14.1978 6.15854 13.752 6.0565C13.6568 5.70207 13.5292 5.35713 13.371 5.026C13.6816 4.88059 13.9583 4.67158 14.183 4.4125C14.5495 5.1205 14.7905 5.904 14.9105 6.7315ZM5.1745 6.7065C5.0695 6.82 5.0145 6.9715 4.991 7.0955C4.96567 7.22572 4.88965 7.34055 4.77966 7.41472C4.66967 7.48889 4.53472 7.51633 4.4045 7.491C4.27428 7.46567 4.15945 7.38965 4.08528 7.27966C4.01111 7.16967 3.98367 7.03472 4.009 6.9045C4.0535 6.6765 4.164 6.328 4.438 6.03C4.7265 5.7155 5.158 5.5 5.75 5.5C6.3475 5.5 6.781 5.726 7.068 6.041C7.34 6.3395 7.453 6.687 7.493 6.9145C7.51568 7.04519 7.48551 7.17953 7.40913 7.28797C7.33276 7.39641 7.21644 7.47007 7.08575 7.49275C6.95506 7.51543 6.82072 7.48526 6.71228 7.40888C6.60384 7.33251 6.53018 7.21619 6.5075 7.0855C6.48239 6.94795 6.42054 6.81976 6.3285 6.7145C6.235 6.611 6.071 6.5 5.75 6.5C5.4235 6.5 5.264 6.6085 5.1745 6.706M13 2C13.1326 2 13.2598 1.94732 13.3536 1.85355C13.4473 1.75979 13.5 1.63261 13.5 1.5C13.5 1.36739 13.4473 1.24021 13.3536 1.14645C13.2598 1.05268 13.1326 1 13 1C12.8674 1 12.7402 1.05268 12.6464 1.14645C12.5527 1.24021 12.5 1.36739 12.5 1.5C12.5 1.63261 12.5527 1.75979 12.6464 1.85355C12.7402 1.94732 12.8674 2 13 2ZM13.875 2.5C13.9745 2.5 14.0698 2.53951 14.1402 2.60983C14.2105 2.68016 14.25 2.77554 14.25 2.875C14.25 3.974 13.334 4.75 12.375 4.75C12.2755 4.75 12.1802 4.71049 12.1098 4.64016C12.0395 4.56984 12 4.47446 12 4.375C12 4.27554 12.0395 4.18016 12.1098 4.10984C12.1802 4.03951 12.2755 4 12.375 4C12.9545 4 13.5 3.526 13.5 2.875C13.5 2.77554 13.5395 2.68016 13.6098 2.60983C13.6802 2.53951 13.7755 2.5 13.875 2.5ZM4.875 12C4.97446 12 5.06984 12.0395 5.14016 12.1098C5.21049 12.1802 5.25 12.2755 5.25 12.375C5.25 13.474 4.334 14.25 3.375 14.25C3.27554 14.25 3.18016 14.2105 3.10983 14.1402C3.03951 14.0698 3 13.9745 3 13.875C3 13.7755 3.03951 13.6802 3.10983 13.6098C3.18016 13.5395 3.27554 13.5 3.375 13.5C3.9545 13.5 4.5 13.026 4.5 12.375C4.5 12.2755 4.53951 12.1802 4.60984 12.1098C4.68016 12.0395 4.77554 12 4.875 12ZM13.5 14.5C13.6326 14.5 13.7598 14.4473 13.8536 14.3536C13.9473 14.2598 14 14.1326 14 14C14 13.8674 13.9473 13.7402 13.8536 13.6464C13.7598 13.5527 13.6326 13.5 13.5 13.5C13.3674 13.5 13.2402 13.5527 13.1464 13.6464C13.0527 13.7402 13 13.8674 13 14C13 14.1326 13.0527 14.2598 13.1464 14.3536C13.2402 14.4473 13.3674 14.5 13.5 14.5ZM5 10C5 10.1326 4.94732 10.2598 4.85355 10.3536C4.75979 10.4473 4.63261 10.5 4.5 10.5C4.36739 10.5 4.24021 10.4473 4.14645 10.3536C4.05268 10.2598 4 10.1326 4 10C4 9.86739 4.05268 9.74021 4.14645 9.64645C4.24021 9.55268 4.36739 9.5 4.5 9.5C4.63261 9.5 4.75979 9.55268 4.85355 9.64645C4.94732 9.74021 5 9.86739 5 10ZM13.1605 6.5C12.9424 6.49993 12.7265 6.54284 12.525 6.62626C12.3235 6.70969 12.1404 6.832 11.9862 6.9862C11.832 7.14041 11.7097 7.32349 11.6263 7.52498C11.5428 7.72647 11.4999 7.94242 11.5 8.1605V8.375C11.5 8.52274 11.5291 8.66903 11.5856 8.80552C11.6422 8.94201 11.725 9.06603 11.8295 9.1705C11.934 9.27496 12.058 9.35783 12.1945 9.41436C12.331 9.4709 12.4773 9.5 12.625 9.5C12.8571 9.5 13.0796 9.40781 13.2437 9.24372C13.4078 9.07962 13.5 8.85706 13.5 8.625V8.375C13.5 8.27554 13.4605 8.18016 13.3902 8.10983C13.3198 8.03951 13.2245 8 13.125 8C13.0255 8 12.9302 8.03951 12.8598 8.10983C12.7895 8.18016 12.75 8.27554 12.75 8.375V8.625C12.75 8.65815 12.7368 8.68995 12.7134 8.71339C12.6899 8.73683 12.6582 8.75 12.625 8.75C12.5255 8.75 12.4302 8.71049 12.3598 8.64017C12.2895 8.56984 12.25 8.47446 12.25 8.375V8.1605C12.25 7.6575 12.658 7.25 13.1605 7.25H13.25C13.5152 7.25 13.7696 7.35536 13.9571 7.54289C14.1446 7.73043 14.25 7.98478 14.25 8.25V8.4305C14.2499 8.84672 14.0845 9.24585 13.7902 9.54016C13.4958 9.83447 13.0967 9.99987 12.6805 10H10.064C10.0843 9.91 10.0947 9.81667 10.095 9.72C10.095 9.55453 10.0624 9.39069 9.99909 9.23782C9.93577 9.08495 9.84296 8.94605 9.72596 8.82905C9.60895 8.71204 9.47005 8.61923 9.31718 8.55591C9.16431 8.49259 9.00047 8.46 8.835 8.46C8.70239 8.46 8.57521 8.51268 8.48145 8.60645C8.38768 8.70021 8.335 8.82739 8.335 8.96C8.335 9.09261 8.38768 9.21979 8.48145 9.31355C8.57521 9.40732 8.70239 9.46 8.835 9.46C8.86914 9.46 8.90295 9.46673 8.9345 9.47979C8.96604 9.49286 8.9947 9.51201 9.01885 9.53615C9.04299 9.5603 9.06214 9.58896 9.07521 9.6205C9.08827 9.65205 9.095 9.68586 9.095 9.72C9.095 9.75414 9.08827 9.78795 9.07521 9.8195C9.06214 9.85104 9.04299 9.8797 9.01885 9.90385C8.9947 9.92799 8.96604 9.94714 8.9345 9.96021C8.90295 9.97328 8.86914 9.98 8.835 9.98C8.70239 9.98 8.57521 10.0327 8.48145 10.1264C8.38768 10.2202 8.335 10.3474 8.335 10.48C8.335 10.6126 8.38768 10.7398 8.48145 10.8336C8.57521 10.9273 8.70239 10.98 8.835 10.98C8.90396 10.98 8.97009 11.0074 9.01885 11.0562C9.06761 11.1049 9.095 11.171 9.095 11.24C9.095 11.309 9.06761 11.3751 9.01885 11.4238C8.97009 11.4726 8.90396 11.5 8.835 11.5C8.70239 11.5 8.57521 11.5527 8.48145 11.6464C8.38768 11.7402 8.335 11.8674 8.335 12C8.335 12.1326 8.38768 12.2598 8.48145 12.3536C8.57521 12.4473 8.70239 12.5 8.835 12.5C9.04294 12.5 9.24766 12.4486 9.43089 12.3503C9.61412 12.252 9.77017 12.1098 9.88513 11.9366C10.0001 11.7633 10.0704 11.5643 10.0897 11.3572C10.1091 11.1502 10.0769 10.9416 9.996 10.75H12.681C13.296 10.7497 13.8858 10.5053 14.3207 10.0703C14.7555 9.63536 14.9999 9.04554 15 8.4305V8.25C15 7.78587 14.8156 7.34075 14.4874 7.01256C14.1592 6.68437 13.7141 6.5 13.25 6.5H13.1605Z" fill="#76615A"/>
</svg>
