<svg width="16" height="16" viewBox="0 0 16 16" fill="none" xmlns="http://www.w3.org/2000/svg">
<path d="M4.53489 4.994C4.23789 5.2755 4.05889 5.614 3.98689 5.829C3.97748 5.86128 3.96164 5.89134 3.94034 5.91736C3.91904 5.94338 3.89271 5.96484 3.86292 5.98044C3.83313 5.99605 3.8005 6.00549 3.76698 6.00819C3.73346 6.01089 3.69974 6.00681 3.66784 5.99617C3.63593 5.98554 3.6065 5.96857 3.58131 5.9463C3.55611 5.92403 3.53567 5.8969 3.5212 5.86654C3.50674 5.83618 3.49855 5.80322 3.49712 5.76962C3.49569 5.73602 3.50106 5.70248 3.51289 5.671C3.60789 5.386 3.82839 4.975 4.19039 4.631C4.55639 4.2835 5.07389 4 5.74989 4C5.8162 4 5.87979 4.02634 5.92667 4.07322C5.97355 4.12011 5.99989 4.1837 5.99989 4.25C5.99989 4.3163 5.97355 4.37989 5.92667 4.42678C5.87979 4.47366 5.8162 4.5 5.74989 4.5C5.22589 4.5 4.82689 4.7165 4.53489 4.994ZM11.4649 4.994C11.7619 5.2755 11.9409 5.614 12.0129 5.829C12.0223 5.86128 12.0381 5.89134 12.0594 5.91736C12.0807 5.94338 12.1071 5.96484 12.1369 5.98044C12.1667 5.99605 12.1993 6.00549 12.2328 6.00819C12.2663 6.01089 12.3 6.00681 12.332 5.99617C12.3639 5.98554 12.3933 5.96857 12.4185 5.9463C12.4437 5.92403 12.4641 5.8969 12.4786 5.86654C12.493 5.83618 12.5012 5.80322 12.5027 5.76962C12.5041 5.73602 12.4987 5.70248 12.4869 5.671C12.3919 5.386 12.1714 4.975 11.8094 4.631C11.4434 4.2835 10.9259 4 10.2499 4C10.1836 4 10.12 4.02634 10.0731 4.07322C10.0262 4.12011 9.99989 4.1837 9.99989 4.25C9.99989 4.3163 10.0262 4.37989 10.0731 4.42678C10.12 4.47366 10.1836 4.5 10.2499 4.5C10.7739 4.5 11.1729 4.7165 11.4649 4.994ZM3.14639 8.1465C3.24016 8.05276 3.36731 8.00011 3.49989 8.00011C3.63248 8.00011 3.75963 8.05276 3.85339 8.1465C3.92489 8.2175 4.32989 8.5 4.99989 8.5C5.66989 8.5 6.07489 8.2175 6.14639 8.1465C6.24069 8.05542 6.367 8.00502 6.49809 8.00616C6.62919 8.0073 6.7546 8.05989 6.8473 8.15259C6.94001 8.24529 6.99259 8.3707 6.99373 8.5018C6.99487 8.6329 6.94447 8.7592 6.85339 8.8535C6.59089 9.116 5.92989 9.5 4.99989 9.5C4.06989 9.5 3.40889 9.116 3.14639 8.8535C3.05266 8.75974 3 8.63258 3 8.5C3 8.36742 3.05266 8.24026 3.14639 8.1465ZM9.14639 8.1465C9.24016 8.05276 9.36731 8.00011 9.49989 8.00011C9.63248 8.00011 9.75963 8.05276 9.85339 8.1465C9.92439 8.2175 10.3299 8.5 10.9999 8.5C11.6699 8.5 12.0749 8.2175 12.1464 8.1465C12.2407 8.05542 12.367 8.00502 12.4981 8.00616C12.6292 8.0073 12.7546 8.05989 12.8473 8.15259C12.94 8.24529 12.9926 8.3707 12.9937 8.5018C12.9949 8.6329 12.9445 8.7592 12.8534 8.8535C12.5909 9.116 11.9299 9.5 10.9999 9.5C10.0699 9.5 9.40889 9.116 9.14639 8.8535C9.05266 8.75974 9 8.63258 9 8.5C9 8.36742 9.05266 8.24026 9.14639 8.1465ZM5.19989 11.6C5.25242 11.5606 5.3122 11.5319 5.3758 11.5156C5.43941 11.4993 5.5056 11.4957 5.5706 11.505C5.6356 11.5143 5.69814 11.5363 5.75464 11.5698C5.81114 11.6032 5.8605 11.6475 5.89989 11.7C6.05489 11.9065 6.75589 12.5 7.99989 12.5C9.24389 12.5 9.94489 11.9065 10.0999 11.7C10.1393 11.6475 10.1886 11.6032 10.2451 11.5698C10.3016 11.5363 10.3642 11.5143 10.4292 11.505C10.4942 11.4957 10.5604 11.4993 10.624 11.5156C10.6876 11.5319 10.7474 11.5606 10.7999 11.6C10.8524 11.6394 10.8967 11.6888 10.9301 11.7453C10.9636 11.8018 10.9856 11.8643 10.9949 11.9293C11.0042 11.9943 11.0005 12.0605 10.9843 12.1241C10.968 12.1877 10.9393 12.2475 10.8999 12.3C10.5549 12.76 9.55589 13.5 7.99989 13.5C6.44389 13.5 5.44489 12.76 5.09989 12.3C5.02033 12.1939 4.98616 12.0606 5.00492 11.9293C5.02367 11.798 5.09381 11.6796 5.19989 11.6Z" fill="#76615A"/>
<path d="M7.9995 0.5C5.5475 0.5 3.6565 1.327 2.3815 2.7115C1.113 4.089 0.5 5.969 0.5 7.9995C0.5 10.03 1.113 11.9095 2.3815 13.2875C3.6565 14.672 5.5475 15.499 7.9995 15.499C10.4515 15.499 12.3425 14.672 13.617 13.2875C14.8855 11.91 15.499 10.03 15.499 7.9995C15.499 5.969 14.885 4.089 13.617 2.7115C12.342 1.327 10.4515 0.5 8 0.5M1.5 7.9995C1.5 6.1645 2.053 4.5445 3.1175 3.389C4.175 2.24 5.784 1.5 7.9995 1.5C10.215 1.5 11.8235 2.24 12.8815 3.389C13.946 4.5445 14.499 6.164 14.499 7.999C14.499 9.834 13.946 11.454 12.8815 12.61C11.8235 13.759 10.215 14.499 7.9995 14.499C5.784 14.499 4.1755 13.759 3.1175 12.61C2.0525 11.455 1.5 9.835 1.5 8" fill="#76615A"/>
</svg>
