<svg width="16" height="16" viewBox="0 0 16 16" fill="none" xmlns="http://www.w3.org/2000/svg">
<path d="M3.5 7.93988C3.5 6.86988 4.37 5.99988 5.44 5.99988C6.51 5.99988 7.38 6.86988 7.38 7.93988C7.38 9.00988 6.51 9.87988 5.44 9.87988C4.37 9.87988 3.5 9.00988 3.5 7.93988ZM6.5815 7.96838C6.954 7.84988 7.106 7.43338 6.9215 7.03588C6.738 6.64188 6.2915 6.41288 5.9185 6.53088C5.546 6.64938 5.394 7.06588 5.5785 7.46388C5.762 7.86138 6.2085 8.08688 6.5815 7.96838ZM10.44 5.99988C9.37 5.99988 8.5 6.86988 8.5 7.93988C8.5 9.00988 9.37 9.87988 10.44 9.87988C11.51 9.87988 12.38 9.00988 12.38 7.93988C12.38 6.86988 11.51 5.99988 10.44 5.99988ZM11.922 7.03588C12.106 7.43338 11.954 7.84988 11.5815 7.96838C11.209 8.08688 10.762 7.86138 10.578 7.46338C10.394 7.06638 10.546 6.64938 10.9185 6.53138C11.287 6.41238 11.738 6.64188 11.922 7.03588ZM5.791 3.50338C5.7257 3.49253 5.65877 3.50802 5.60487 3.54645C5.55097 3.58488 5.51452 3.64311 5.5035 3.70838L5.502 3.71638L5.4935 3.75388C5.43659 3.96899 5.33919 4.17127 5.2065 4.34988C4.968 4.66738 4.54 4.99988 3.75 4.99988C3.6837 4.99988 3.62011 5.02622 3.57322 5.07311C3.52634 5.11999 3.5 5.18358 3.5 5.24988C3.5 5.31619 3.52634 5.37978 3.57322 5.42666C3.62011 5.47354 3.6837 5.49988 3.75 5.49988C4.71 5.49988 5.2815 5.08238 5.6065 4.64988C5.77916 4.41786 5.90546 4.15472 5.9785 3.87488L5.995 3.79988L5.996 3.79438V3.79238L5.9965 3.79138C6.0075 3.72601 5.99208 3.65894 5.95364 3.60493C5.91519 3.55093 5.85687 3.5144 5.7915 3.50338M10.498 3.71638L10.4965 3.70838C10.4842 3.64429 10.4473 3.58756 10.3937 3.55031C10.3401 3.51305 10.2741 3.49822 10.2097 3.509C10.1454 3.51977 10.0878 3.55528 10.0492 3.60795C10.0107 3.66062 9.99428 3.72628 10.0035 3.79088C9.757 3.83188 10.0035 3.79138 10.0035 3.79138V3.79438L10.005 3.79938C10.0095 3.82475 10.015 3.84994 10.0215 3.87488C10.0945 4.15472 10.2208 4.41786 10.3935 4.64988C10.7185 5.08238 11.29 5.49988 12.25 5.49988C12.3163 5.49988 12.3799 5.47354 12.4268 5.42666C12.4737 5.37978 12.5 5.31619 12.5 5.24988C12.5 5.18358 12.4737 5.11999 12.4268 5.07311C12.3799 5.02622 12.3163 4.99988 12.25 4.99988C11.46 4.99988 11.0315 4.66738 10.7935 4.34988C10.6608 4.17127 10.5634 3.96899 10.5065 3.75388L10.498 3.71638ZM7.4405 12.7364C7.37743 12.8503 7.27239 12.9352 7.14771 12.9729C7.02304 13.0106 6.88858 12.9981 6.77294 12.9382C6.6573 12.8783 6.56962 12.7756 6.52854 12.652C6.48746 12.5284 6.49624 12.3936 6.553 12.2764V12.2754L6.554 12.2739L6.555 12.2719L6.558 12.2664L6.5615 12.2599L6.565 12.2534C6.57 12.2434 6.57667 12.2319 6.585 12.2189C6.60067 12.1919 6.62267 12.1596 6.651 12.1219C6.707 12.0469 6.7905 11.9519 6.906 11.8594C7.145 11.6684 7.504 11.4999 8 11.4999C8.496 11.4999 8.855 11.6684 9.0935 11.8599C9.21994 11.9608 9.32861 12.0821 9.415 12.2189L9.435 12.2534L9.4385 12.2594L9.442 12.2664L9.445 12.2714L9.446 12.2739L9.4465 12.2754L9.447 12.2764L9.4475 12.2769C9.5085 12.3946 9.52022 12.5318 9.48009 12.6582C9.43996 12.7846 9.35126 12.8899 9.2335 12.9509C9.11574 13.0119 8.97858 13.0236 8.85218 12.9835C8.72578 12.9433 8.6205 12.8546 8.5595 12.7369L8.5495 12.7219C8.52588 12.6917 8.49887 12.6644 8.469 12.6404C8.395 12.5809 8.254 12.4999 8 12.4999C7.7465 12.4999 7.605 12.5809 7.531 12.6399C7.49669 12.6679 7.46626 12.7004 7.4405 12.7364Z" fill="#76615A"/>
<path d="M7.9995 0.5C5.5475 0.5 3.6565 1.327 2.3815 2.7115C1.113 4.089 0.5 5.969 0.5 7.9995C0.5 10.03 1.113 11.9095 2.3815 13.2875C3.6565 14.672 5.5475 15.499 7.9995 15.499C10.4515 15.499 12.3425 14.672 13.617 13.2875C14.8855 11.91 15.499 10.03 15.499 7.9995C15.499 5.969 14.885 4.089 13.617 2.7115C12.342 1.327 10.4515 0.5 8 0.5M1.5 7.9995C1.5 6.1645 2.053 4.5445 3.1175 3.389C4.175 2.24 5.784 1.5 7.9995 1.5C10.215 1.5 11.8235 2.24 12.8815 3.389C13.946 4.5445 14.499 6.164 14.499 7.999C14.499 9.834 13.946 11.454 12.8815 12.61C11.8235 13.759 10.215 14.499 7.9995 14.499C5.784 14.499 4.1755 13.759 3.1175 12.61C2.0525 11.455 1.5 9.835 1.5 8" fill="#76615A"/>
</svg>
