<svg width="20" height="20" viewBox="0 0 20 20" fill="none" xmlns="http://www.w3.org/2000/svg">
<path d="M6.875 9.375C7.37228 9.375 7.84919 9.17746 8.20083 8.82583C8.55246 8.47419 8.75 7.99728 8.75 7.5C8.75 7.00272 8.55246 6.52581 8.20083 6.17417C7.84919 5.82254 7.37228 5.625 6.875 5.625C6.37772 5.625 5.90081 5.82254 5.54917 6.17417C5.19754 6.52581 5 7.00272 5 7.5C5 7.99728 5.19754 8.47419 5.54917 8.82583C5.90081 9.17746 6.37772 9.375 6.875 9.375ZM13.125 9.375C13.6223 9.375 14.0992 9.17746 14.4508 8.82583C14.8025 8.47419 15 7.99728 15 7.5C15 7.00272 14.8025 6.52581 14.4508 6.17417C14.0992 5.82254 13.6223 5.625 13.125 5.625C12.6277 5.625 12.1508 5.82254 11.7992 6.17417C11.4475 6.52581 11.25 7.00272 11.25 7.5C11.25 7.99728 11.4475 8.47419 11.7992 8.82583C12.1508 9.17746 12.6277 9.375 13.125 9.375ZM6.80875 14.0294C6.93625 13.775 7.7875 12.5 10 12.5C12.2125 12.5 13.0637 13.775 13.1906 14.0294C13.2647 14.1777 13.3947 14.2906 13.552 14.3431C13.7093 14.3956 13.881 14.3835 14.0294 14.3094C14.1777 14.2353 14.2906 14.1053 14.3431 13.948C14.3956 13.7907 14.3835 13.619 14.3094 13.4706C14.0188 12.8919 12.7875 11.25 10 11.25C7.2125 11.25 5.98062 12.8919 5.69125 13.4706C5.65152 13.5443 5.627 13.6252 5.61913 13.7085C5.61126 13.7919 5.62021 13.8759 5.64545 13.9557C5.67069 14.0355 5.7117 14.1095 5.76605 14.1731C5.82041 14.2368 5.88699 14.2889 5.96185 14.3263C6.03672 14.3637 6.11834 14.3857 6.20188 14.391C6.28541 14.3963 6.36916 14.3848 6.44814 14.3571C6.52713 14.3294 6.59975 14.2861 6.6617 14.2298C6.72364 14.1735 6.77365 14.1054 6.80875 14.0294Z" fill="#B28C7E"/>
<path d="M2.97687 3.38937C4.57062 1.65875 6.93437 0.625 10 0.625C13.0656 0.625 15.4287 1.65875 17.0219 3.38937C18.6075 5.11125 19.3744 7.46125 19.3744 9.99937C19.3744 12.5375 18.6075 14.8869 17.0219 16.6094C15.4281 18.34 13.065 19.3737 10 19.3737C6.935 19.3737 4.57125 18.34 2.9775 16.6094C1.39125 14.8875 0.625 12.5375 0.625 9.99937C0.625 7.46125 1.39125 5.11125 2.97687 3.38937ZM3.89687 4.23625C2.56562 5.68062 1.875 7.705 1.875 9.99875C1.875 12.2925 2.56625 14.3175 3.89687 15.7625C5.21937 17.1987 7.23 18.1237 9.99937 18.1237C12.7687 18.1237 14.7794 17.1987 16.1019 15.7625C17.4325 14.3181 18.1237 12.2937 18.1237 9.99937C18.1237 7.70562 17.4325 5.68062 16.1019 4.23625C14.7794 2.8 12.7687 1.875 10 1.875C7.23125 1.875 5.21875 2.8 3.89687 4.23625Z" fill="#B28C7E"/>
</svg>
