<svg width="20" height="20" viewBox="0 0 20 20" fill="none" xmlns="http://www.w3.org/2000/svg">
<path d="M3.89687 4.23625C2.56562 5.68062 1.875 7.705 1.875 9.99875C1.875 12.2925 2.56625 14.3175 3.89687 15.7625C4.5563 16.4742 5.35889 17.0382 6.25187 17.4175L6.25 17.5C6.25 18.1106 6.54187 18.6525 6.99375 18.995C5.3475 18.5481 4.00312 17.7231 2.97687 16.6094C1.39125 14.8875 0.625 12.5375 0.625 9.99937C0.625 7.46125 1.39125 5.11125 2.97687 3.38937C4.57062 1.65875 6.93437 0.625 10 0.625C13.0656 0.625 15.4287 1.65875 17.0219 3.38937C18.6075 5.11125 19.3744 7.46125 19.3744 9.99937C19.3744 12.5375 18.6075 14.8869 17.0219 16.6094C15.9969 17.7225 14.6531 18.5475 13.0081 18.9944C13.25 18.811 13.4438 18.5717 13.5728 18.2969C13.7019 18.0221 13.7622 17.7201 13.7487 17.4169C14.6412 17.0376 15.4434 16.4738 16.1025 15.7625C17.4331 14.3181 18.1244 12.2937 18.1244 9.99937C18.1244 7.70562 17.4331 5.68062 16.1025 4.23625C14.7794 2.8 12.7687 1.875 10 1.875C7.23125 1.875 5.21875 2.8 3.89687 4.23625Z" fill="#B28C7E"/>
<path d="M8.125 18.7501C7.79348 18.7501 7.47554 18.6184 7.24112 18.384C7.0067 18.1496 6.875 17.8316 6.875 17.5001C6.875 17.1686 7.0067 16.8506 7.24112 16.6162C7.47554 16.3818 7.79348 16.2501 8.125 16.2501C9.05437 15.802 9.49687 14.7545 9.65437 14.282L9.65813 14.2713L9.6875 14.1795C9.71313 14.0938 9.725 14.0438 9.725 14.0438C9.85625 13.8688 10.1125 13.8688 10.2437 14.0438C10.2631 14.1199 10.2861 14.195 10.3125 14.2688L10.3163 14.2795C10.4763 14.742 10.9244 15.7651 11.875 16.2501C12.0435 16.2502 12.2103 16.2843 12.3653 16.3505C12.5203 16.4167 12.6603 16.5135 12.7769 16.6352C12.8936 16.7568 12.9844 16.9008 13.0439 17.0585C13.1034 17.2162 13.1305 17.3843 13.1234 17.5526C13.1163 17.721 13.0752 17.8862 13.0027 18.0383C12.9301 18.1905 12.8275 18.3263 12.7011 18.4378C12.5747 18.5492 12.427 18.6339 12.267 18.6869C12.107 18.7398 11.9379 18.7598 11.77 18.7457C11.6418 19.1127 11.4024 19.4307 11.0852 19.6555C10.7681 19.8803 10.3888 20.0007 10 20.0001C9.61113 20.0012 9.23162 19.8809 8.91434 19.656C8.59707 19.4312 8.35784 19.113 8.23 18.7457C8.19508 18.7487 8.16005 18.7501 8.125 18.7501Z" fill="#B28C7E"/>
<path d="M10.8625 13.9375L10.8681 13.9562C11.0423 13.7809 11.1606 13.5578 11.208 13.3151C11.2554 13.0725 11.2298 12.8213 11.1345 12.5932C11.0391 12.3651 10.8783 12.1705 10.6723 12.0338C10.4663 11.8971 10.2244 11.8246 9.97723 11.8254C9.73002 11.8262 9.4886 11.9002 9.28349 12.0382C9.07838 12.1762 8.91878 12.3719 8.82489 12.6006C8.73099 12.8292 8.707 13.0806 8.75596 13.3229C8.80492 13.5652 8.92463 13.7876 9.09995 13.9619L9.10495 13.945L9.11495 13.9062L9.11683 13.8988L9.14683 13.7738L9.22495 13.6688C9.31308 13.5504 9.42763 13.4544 9.55947 13.3882C9.69131 13.322 9.8368 13.2875 9.98433 13.2875C10.1319 13.2875 10.2773 13.322 10.4092 13.3882C10.541 13.4544 10.6556 13.5504 10.7437 13.6688L10.8206 13.7713L10.8506 13.8944L10.8525 13.9006L10.8625 13.9375ZM4.3587 6.03625C4.4487 5.7675 4.67245 5.34375 5.04308 4.9925C5.4087 4.64562 5.90745 4.375 6.56245 4.375C6.64533 4.375 6.72482 4.34208 6.78342 4.28347C6.84203 4.22487 6.87495 4.14538 6.87495 4.0625C6.87495 3.97962 6.84203 3.90013 6.78342 3.84153C6.72482 3.78292 6.64533 3.75 6.56245 3.75C5.71808 3.75 5.0712 4.10438 4.6137 4.53875C4.1612 4.96875 3.88495 5.4825 3.76683 5.83875C3.74419 5.91634 3.75251 5.99969 3.79002 6.07128C3.82753 6.14288 3.89133 6.19715 3.968 6.22271C4.04468 6.24827 4.12828 6.24313 4.20125 6.20836C4.27422 6.17359 4.33025 6.1119 4.3587 6.03625ZM15.6412 6.03625C15.5512 5.7675 15.3268 5.34375 14.9568 4.9925C14.5912 4.64562 14.0925 4.375 13.4375 4.375C13.3546 4.375 13.2751 4.34208 13.2165 4.28347C13.1579 4.22487 13.125 4.14538 13.125 4.0625C13.125 3.97962 13.1579 3.90013 13.2165 3.84153C13.2751 3.78292 13.3546 3.75 13.4375 3.75C14.2825 3.75 14.9293 4.10438 15.3875 4.53875C15.8393 4.96875 16.115 5.4825 16.2337 5.83875C16.2485 5.8781 16.2552 5.92002 16.2534 5.96202C16.2516 6.00402 16.2414 6.04523 16.2233 6.08317C16.2052 6.12112 16.1797 6.15503 16.1482 6.18288C16.1167 6.21072 16.0799 6.23192 16.04 6.24521C16.0001 6.25851 15.958 6.26362 15.9161 6.26024C15.8742 6.25686 15.8334 6.24507 15.7962 6.22556C15.7589 6.20605 15.726 6.17923 15.6994 6.1467C15.6728 6.11417 15.653 6.0766 15.6412 6.03625ZM4.76245 8.25938C4.69802 8.20849 4.6242 8.17079 4.5452 8.14843C4.4662 8.12607 4.38357 8.1195 4.30203 8.12907C4.22049 8.13865 4.14163 8.16419 4.06996 8.20424C3.99829 8.24429 3.93521 8.29807 3.88433 8.3625C3.83344 8.42693 3.79574 8.50075 3.77338 8.57975C3.75103 8.65875 3.74445 8.74138 3.75402 8.82292C3.77336 8.9876 3.85733 9.13785 3.98745 9.24062C4.62245 9.74187 5.2862 10 6.24995 10C7.2087 10 7.89933 9.74062 8.51995 9.23437C8.64842 9.12961 8.73 8.97811 8.74676 8.8132C8.76352 8.64828 8.71409 8.48346 8.60933 8.355C8.50457 8.22654 8.35306 8.14495 8.18815 8.12819C8.02323 8.11143 7.85842 8.16086 7.72995 8.26563C7.34433 8.58063 6.9362 8.75 6.24995 8.75C5.5687 8.75 5.17745 8.5875 4.76245 8.25938ZM12.2625 8.25938C12.198 8.20849 12.1242 8.17079 12.0452 8.14843C11.9662 8.12607 11.8836 8.1195 11.802 8.12907C11.7205 8.13865 11.6416 8.16419 11.57 8.20424C11.4983 8.24429 11.4352 8.29807 11.3843 8.3625C11.3334 8.42693 11.2957 8.50075 11.2734 8.57975C11.251 8.65875 11.2444 8.74138 11.254 8.82292C11.2636 8.90446 11.2891 8.98332 11.3292 9.05499C11.3692 9.12666 11.423 9.18974 11.4875 9.24062C12.1225 9.74187 12.7862 10 13.75 10C14.7087 10 15.3993 9.74062 16.02 9.23437C16.1484 9.12961 16.23 8.97811 16.2468 8.8132C16.2635 8.64828 16.2141 8.48346 16.1093 8.355C16.0575 8.29139 15.9936 8.23862 15.9213 8.19971C15.849 8.16079 15.7698 8.13649 15.6881 8.12819C15.5232 8.11143 15.3584 8.16086 15.23 8.26563C14.8443 8.58063 14.4362 8.75 13.75 8.75C13.0687 8.75 12.6775 8.5875 12.2625 8.25938Z" fill="#B28C7E"/>
</svg>
