<svg width="20" height="20" viewBox="0 0 20 20" fill="none" xmlns="http://www.w3.org/2000/svg">
<path d="M6.875 8.125C7.37228 8.125 7.84919 7.92746 8.20083 7.57583C8.55246 7.22419 8.75 6.74728 8.75 6.25C8.75 5.75272 8.55246 5.27581 8.20083 4.92417C7.84919 4.57254 7.37228 4.375 6.875 4.375C6.37772 4.375 5.90081 4.57254 5.54917 4.92417C5.19754 5.27581 5 5.75272 5 6.25C5 6.74728 5.19754 7.22419 5.54917 7.57583C5.90081 7.92746 6.37772 8.125 6.875 8.125ZM13.125 8.125C13.6223 8.125 14.0992 7.92746 14.4508 7.57583C14.8025 7.22419 15 6.74728 15 6.25C15 5.75272 14.8025 5.27581 14.4508 4.92417C14.0992 4.57254 13.6223 4.375 13.125 4.375C12.6277 4.375 12.1508 4.57254 11.7992 4.92417C11.4475 5.27581 11.25 5.75272 11.25 6.25C11.25 6.74728 11.4475 7.22419 11.7992 7.57583C12.1508 7.92746 12.6277 8.125 13.125 8.125ZM4.375 10C4.375 10 4.375 15.625 10 15.625C15.625 15.625 15.625 10 15.625 10H4.375Z" fill="#B28C7E"/>
<path d="M2.97687 3.38937C4.57062 1.65875 6.93437 0.625 10 0.625C13.0656 0.625 15.4287 1.65875 17.0219 3.38937C18.6075 5.11125 19.3744 7.46125 19.3744 9.99937C19.3744 12.5375 18.6075 14.8869 17.0219 16.6094C15.4281 18.34 13.065 19.3737 10 19.3737C6.935 19.3737 4.57125 18.34 2.9775 16.6094C1.39125 14.8875 0.625 12.5375 0.625 9.99937C0.625 7.46125 1.39125 5.11125 2.97687 3.38937ZM3.89687 4.23625C2.56562 5.68062 1.875 7.705 1.875 9.99875C1.875 12.2925 2.56625 14.3175 3.89687 15.7625C5.21937 17.1987 7.23 18.1237 9.99937 18.1237C12.7687 18.1237 14.7794 17.1987 16.1019 15.7625C17.4325 14.3181 18.1237 12.2937 18.1237 9.99937C18.1237 7.70562 17.4325 5.68062 16.1019 4.23625C14.7794 2.8 12.7687 1.875 10 1.875C7.23125 1.875 5.21875 2.8 3.89687 4.23625Z" fill="#B28C7E"/>
</svg>
