<svg width="20" height="20" viewBox="0 0 20 20" fill="none" xmlns="http://www.w3.org/2000/svg">
<path d="M10 1.25H2.5C2.16848 1.25 1.85054 1.3817 1.61612 1.61612C1.3817 1.85054 1.25 2.16848 1.25 2.5V10C1.25 12.3656 1.96437 14.56 3.44625 16.1688C3.51792 16.2471 3.59167 16.3238 3.6675 16.3988C3.82938 16.3044 4.0175 16.25 4.21875 16.25C4.5 16.25 4.76688 16.0875 4.90438 15.84C4.71462 15.6782 4.53471 15.5052 4.36563 15.3219C3.13938 13.9906 2.5 12.1219 2.5 10C2.5 9.54042 2.52979 9.09396 2.58938 8.66063L8.66687 2.58312C9.10907 2.52748 9.55432 2.49972 10 2.5C12.365 2.5 14.1275 3.22875 15.3431 4.38188C15.3844 4.37771 15.4262 4.37542 15.4688 4.375C15.8738 4.375 16.25 4.03687 16.25 3.59375C16.25 3.57 16.2508 3.54625 16.2525 3.5225C14.7725 2.09188 12.67 1.25 10 1.25ZM2.5 2.5H4.00875L2.5 4.00875V2.5ZM5.36625 2.5H6.9825L2.5 6.9825V5.36625L5.36625 2.5ZM10 18.75C8.425 18.75 7.0475 18.4569 5.87812 17.9231C6.25194 17.6721 6.56446 17.3401 6.7925 16.9519C7.70375 17.3031 8.77062 17.5 10 17.5C12.5613 17.5 14.4156 16.645 15.6344 15.3219C16.0042 14.9189 16.3211 14.4705 16.5775 13.9875C17.2296 13.8502 17.8293 13.5305 18.3069 13.0656C17.9469 14.23 17.3656 15.2869 16.5538 16.1688C15.0644 17.7863 12.8569 18.75 10 18.75Z" fill="#B28C7E"/>
<path d="M14.29 8.58063C14.5444 8.24125 14.8775 7.96375 15.2619 7.775C15.2087 7.69603 15.1496 7.62123 15.085 7.55125C14.7262 7.1575 14.185 6.875 13.4375 6.875C12.6975 6.875 12.1581 7.14438 11.7975 7.5375C11.455 7.91 11.3169 8.34563 11.2619 8.63125C11.2441 8.71265 11.2428 8.79679 11.258 8.8787C11.2733 8.96062 11.3047 9.03866 11.3505 9.10825C11.3964 9.17783 11.4556 9.23755 11.5249 9.28389C11.5941 9.33023 11.6719 9.36227 11.7537 9.3781C11.8355 9.39393 11.9197 9.39325 12.0012 9.3761C12.0827 9.35894 12.16 9.32566 12.2285 9.2782C12.297 9.23075 12.3553 9.17008 12.4 9.09976C12.4447 9.02944 12.4749 8.9509 12.4888 8.86875C12.5188 8.715 12.5875 8.525 12.7181 8.38313C12.8306 8.26063 13.0294 8.125 13.4375 8.125C13.8388 8.125 14.0431 8.26375 14.1606 8.39312C14.2144 8.45125 14.2569 8.51625 14.29 8.58063ZM18.6381 8.41438C18.2524 7.99249 17.7472 7.69817 17.19 7.57062C17.071 7.12759 16.9116 6.69641 16.7138 6.2825C17.102 6.10074 17.4478 5.83948 17.7287 5.51562C18.1869 6.40062 18.4881 7.38 18.6381 8.41438ZM6.46812 8.38313C6.33687 8.525 6.26813 8.71437 6.23875 8.86937C6.20709 9.03215 6.11206 9.17568 5.97458 9.2684C5.83709 9.36111 5.6684 9.39541 5.50563 9.36375C5.34285 9.33209 5.19932 9.23706 5.1066 9.09958C5.01389 8.96209 4.97959 8.7934 5.01125 8.63063C5.06687 8.34563 5.205 7.91 5.5475 7.5375C5.90813 7.14438 6.4475 6.875 7.1875 6.875C7.93438 6.875 8.47625 7.1575 8.835 7.55125C9.175 7.92437 9.31625 8.35875 9.36625 8.64313C9.3946 8.80648 9.35689 8.97441 9.26142 9.10996C9.16595 9.24552 9.02054 9.33759 8.85719 9.36594C8.69383 9.39428 8.5259 9.35657 8.39035 9.26111C8.2548 9.16564 8.16272 9.02023 8.13438 8.85687C8.10299 8.68494 8.02568 8.52469 7.91062 8.39312C7.79375 8.26375 7.58875 8.125 7.1875 8.125C6.77938 8.125 6.58 8.26062 6.46812 8.3825M16.25 2.5C16.4158 2.5 16.5747 2.43415 16.6919 2.31694C16.8092 2.19973 16.875 2.04076 16.875 1.875C16.875 1.70924 16.8092 1.55027 16.6919 1.43306C16.5747 1.31585 16.4158 1.25 16.25 1.25C16.0842 1.25 15.9253 1.31585 15.8081 1.43306C15.6908 1.55027 15.625 1.70924 15.625 1.875C15.625 2.04076 15.6908 2.19973 15.8081 2.31694C15.9253 2.43415 16.0842 2.5 16.25 2.5ZM17.3438 3.125C17.4681 3.125 17.5873 3.17439 17.6752 3.26229C17.7631 3.3502 17.8125 3.46943 17.8125 3.59375C17.8125 4.9675 16.6675 5.9375 15.4688 5.9375C15.3444 5.9375 15.2252 5.88811 15.1373 5.80021C15.0494 5.7123 15 5.59307 15 5.46875C15 5.34443 15.0494 5.2252 15.1373 5.13729C15.2252 5.04939 15.3444 5 15.4688 5C16.1931 5 16.875 4.4075 16.875 3.59375C16.875 3.46943 16.9244 3.3502 17.0123 3.26229C17.1002 3.17439 17.2194 3.125 17.3438 3.125ZM6.09375 15C6.21807 15 6.3373 15.0494 6.42521 15.1373C6.51311 15.2252 6.5625 15.3444 6.5625 15.4688C6.5625 16.8425 5.4175 17.8125 4.21875 17.8125C4.09443 17.8125 3.9752 17.7631 3.88729 17.6752C3.79939 17.5873 3.75 17.4681 3.75 17.3438C3.75 17.2194 3.79939 17.1002 3.88729 17.0123C3.9752 16.9244 4.09443 16.875 4.21875 16.875C4.94313 16.875 5.625 16.2825 5.625 15.4688C5.625 15.3444 5.67439 15.2252 5.76229 15.1373C5.8502 15.0494 5.96943 15 6.09375 15ZM16.875 18.125C17.0408 18.125 17.1997 18.0592 17.3169 17.9419C17.4342 17.8247 17.5 17.6658 17.5 17.5C17.5 17.3342 17.4342 17.1753 17.3169 17.0581C17.1997 16.9408 17.0408 16.875 16.875 16.875C16.7092 16.875 16.5503 16.9408 16.4331 17.0581C16.3158 17.1753 16.25 17.3342 16.25 17.5C16.25 17.6658 16.3158 17.8247 16.4331 17.9419C16.5503 18.0592 16.7092 18.125 16.875 18.125ZM6.25 12.5C6.25 12.6658 6.18415 12.8247 6.06694 12.9419C5.94973 13.0592 5.79076 13.125 5.625 13.125C5.45924 13.125 5.30027 13.0592 5.18306 12.9419C5.06585 12.8247 5 12.6658 5 12.5C5 12.3342 5.06585 12.1753 5.18306 12.0581C5.30027 11.9408 5.45924 11.875 5.625 11.875C5.79076 11.875 5.94973 11.9408 6.06694 12.0581C6.18415 12.1753 6.25 12.3342 6.25 12.5ZM16.4506 8.125C16.178 8.12492 15.9081 8.17855 15.6562 8.28283C15.4044 8.38711 15.1755 8.54 14.9828 8.73275C14.79 8.92551 14.6371 9.15436 14.5328 9.40622C14.4285 9.65808 14.3749 9.92803 14.375 10.2006V10.4688C14.375 10.6534 14.4114 10.8363 14.482 11.0069C14.5527 11.1775 14.6563 11.3325 14.7869 11.4631C14.9175 11.5937 15.0725 11.6973 15.2431 11.768C15.4137 11.8386 15.5966 11.875 15.7812 11.875C16.0713 11.875 16.3495 11.7598 16.5546 11.5546C16.7598 11.3495 16.875 11.0713 16.875 10.7812V10.4688C16.875 10.3444 16.8256 10.2252 16.7377 10.1373C16.6498 10.0494 16.5306 10 16.4062 10C16.2819 10 16.1627 10.0494 16.0748 10.1373C15.9869 10.2252 15.9375 10.3444 15.9375 10.4688V10.7812C15.9375 10.8227 15.921 10.8624 15.8917 10.8917C15.8624 10.921 15.8227 10.9375 15.7812 10.9375C15.6569 10.9375 15.5377 10.8881 15.4498 10.8002C15.3619 10.7123 15.3125 10.5931 15.3125 10.4688V10.2006C15.3125 9.57187 15.8225 9.0625 16.4506 9.0625H16.5625C16.894 9.0625 17.212 9.1942 17.4464 9.42862C17.6808 9.66304 17.8125 9.98098 17.8125 10.3125V10.5381C17.8123 11.0584 17.6056 11.5573 17.2377 11.9252C16.8698 12.2931 16.3709 12.4998 15.8506 12.5H12.58C12.6054 12.3875 12.6183 12.2708 12.6188 12.15C12.6188 11.9432 12.578 11.7384 12.4989 11.5473C12.4197 11.3562 12.3037 11.1826 12.1574 11.0363C12.0112 10.8901 11.8376 10.774 11.6465 10.6949C11.4554 10.6157 11.2506 10.575 11.0438 10.575C10.878 10.575 10.719 10.6408 10.6018 10.7581C10.4846 10.8753 10.4188 11.0342 10.4188 11.2C10.4188 11.3658 10.4846 11.5247 10.6018 11.6419C10.719 11.7592 10.878 11.825 11.0438 11.825C11.0864 11.825 11.1287 11.8334 11.1681 11.8497C11.2076 11.8661 11.2434 11.89 11.2736 11.9202C11.3037 11.9504 11.3277 11.9862 11.344 12.0256C11.3603 12.0651 11.3688 12.1073 11.3688 12.15C11.3688 12.1927 11.3603 12.2349 11.344 12.2744C11.3277 12.3138 11.3037 12.3496 11.2736 12.3798C11.2434 12.41 11.2076 12.4339 11.1681 12.4503C11.1287 12.4666 11.0864 12.475 11.0438 12.475C10.878 12.475 10.719 12.5408 10.6018 12.6581C10.4846 12.7753 10.4188 12.9342 10.4188 13.1C10.4188 13.2658 10.4846 13.4247 10.6018 13.5419C10.719 13.6592 10.878 13.725 11.0438 13.725C11.1299 13.725 11.2126 13.7592 11.2736 13.8202C11.3345 13.8811 11.3688 13.9638 11.3688 14.05C11.3688 14.1362 11.3345 14.2189 11.2736 14.2798C11.2126 14.3408 11.1299 14.375 11.0438 14.375C10.878 14.375 10.719 14.4408 10.6018 14.5581C10.4846 14.6753 10.4188 14.8342 10.4188 15C10.4188 15.1658 10.4846 15.3247 10.6018 15.4419C10.719 15.5592 10.878 15.625 11.0438 15.625C11.3037 15.625 11.5596 15.5607 11.7886 15.4379C12.0177 15.315 12.2127 15.1373 12.3564 14.9207C12.5001 14.7041 12.588 14.4553 12.6121 14.1965C12.6363 13.9377 12.5961 13.677 12.495 13.4375H15.8512C16.6201 13.4372 17.3573 13.1316 17.9008 12.5879C18.4444 12.0442 18.7498 11.3069 18.75 10.5381V10.3125C18.75 9.73234 18.5195 9.17594 18.1093 8.7657C17.6991 8.35547 17.1427 8.125 16.5625 8.125H16.4506Z" fill="#B28C7E"/>
</svg>
