<svg width="20" height="20" viewBox="0 0 20 20" fill="none" xmlns="http://www.w3.org/2000/svg">
<path d="M5.66886 6.2425C5.29761 6.59437 5.07386 7.0175 4.98386 7.28625C4.97209 7.3266 4.9523 7.36417 4.92567 7.3967C4.89904 7.42923 4.86613 7.45605 4.82889 7.47556C4.79166 7.49507 4.75087 7.50686 4.70897 7.51024C4.66707 7.51362 4.62492 7.50851 4.58504 7.49521C4.54516 7.48192 4.50837 7.46072 4.47688 7.43288C4.44539 7.40503 4.41983 7.37112 4.40175 7.33317C4.38367 7.29523 4.37343 7.25402 4.37164 7.21202C4.36986 7.17002 4.37656 7.1281 4.39136 7.08875C4.51011 6.7325 4.78574 6.21875 5.23824 5.78875C5.69574 5.35438 6.34261 5 7.18761 5C7.27049 5 7.34998 5.03292 7.40858 5.09153C7.46719 5.15013 7.50011 5.22962 7.50011 5.3125C7.50011 5.39538 7.46719 5.47487 7.40858 5.53347C7.34998 5.59208 7.27049 5.625 7.18761 5.625C6.53261 5.625 6.03386 5.89562 5.66886 6.2425ZM14.3314 6.2425C14.7026 6.59437 14.9264 7.0175 15.0164 7.28625C15.0281 7.3266 15.0479 7.36417 15.0745 7.3967C15.1012 7.42923 15.1341 7.45605 15.1713 7.47556C15.2086 7.49507 15.2494 7.50686 15.2913 7.51024C15.3332 7.51362 15.3753 7.50851 15.4152 7.49521C15.4551 7.48192 15.4918 7.46072 15.5233 7.43288C15.5548 7.40503 15.5804 7.37112 15.5985 7.33317C15.6166 7.29523 15.6268 7.25402 15.6286 7.21202C15.6304 7.17002 15.6237 7.1281 15.6089 7.08875C15.4901 6.7325 15.2145 6.21875 14.762 5.78875C14.3045 5.35438 13.6576 5 12.8126 5C12.7297 5 12.6502 5.03292 12.5916 5.09153C12.533 5.15013 12.5001 5.22962 12.5001 5.3125C12.5001 5.39538 12.533 5.47487 12.5916 5.53347C12.6502 5.59208 12.7297 5.625 12.8126 5.625C13.4676 5.625 13.9664 5.89562 14.3314 6.2425ZM3.93324 10.1831C4.05044 10.066 4.20938 10.0001 4.37511 10.0001C4.54084 10.0001 4.69978 10.066 4.81699 10.1831C4.90636 10.2719 5.41261 10.625 6.25011 10.625C7.08761 10.625 7.59386 10.2719 7.68324 10.1831C7.80111 10.0693 7.95899 10.0063 8.12286 10.0077C8.28673 10.0091 8.44349 10.0749 8.55937 10.1907C8.67525 10.3066 8.74098 10.4634 8.74241 10.6272C8.74383 10.7911 8.68083 10.949 8.56699 11.0669C8.23886 11.395 7.41261 11.875 6.25011 11.875C5.08761 11.875 4.26136 11.395 3.93324 11.0669C3.81607 10.9497 3.75024 10.7907 3.75024 10.625C3.75024 10.4593 3.81607 10.3003 3.93324 10.1831ZM11.4332 10.1831C11.5504 10.066 11.7094 10.0001 11.8751 10.0001C12.0408 10.0001 12.1998 10.066 12.317 10.1831C12.4057 10.2719 12.9126 10.625 13.7501 10.625C14.5876 10.625 15.0939 10.2719 15.1832 10.1831C15.3011 10.0693 15.459 10.0063 15.6229 10.0077C15.7867 10.0091 15.9435 10.0749 16.0594 10.1907C16.1753 10.3066 16.241 10.4634 16.2424 10.6272C16.2438 10.7911 16.1808 10.949 16.067 11.0669C15.7389 11.395 14.9126 11.875 13.7501 11.875C12.5876 11.875 11.7614 11.395 11.4332 11.0669C11.3161 10.9497 11.2502 10.7907 11.2502 10.625C11.2502 10.4593 11.3161 10.3003 11.4332 10.1831ZM6.50011 14.5C6.56577 14.4508 6.64049 14.4149 6.72 14.3946C6.79951 14.3742 6.88225 14.3697 6.9635 14.3813C7.04475 14.3929 7.12292 14.4204 7.19354 14.4622C7.26417 14.504 7.32587 14.5593 7.37511 14.625C7.56886 14.8831 8.44511 15.625 10.0001 15.625C11.5551 15.625 12.4314 14.8831 12.6251 14.625C12.6744 14.5593 12.7361 14.504 12.8067 14.4622C12.8773 14.4204 12.9555 14.3929 13.0367 14.3813C13.118 14.3697 13.2007 14.3742 13.2802 14.3946C13.3597 14.4149 13.4344 14.4508 13.5001 14.5C13.5658 14.5492 13.6211 14.6109 13.6629 14.6816C13.7047 14.7522 13.7322 14.8304 13.7438 14.9116C13.7554 14.9929 13.7509 15.0756 13.7306 15.1551C13.7102 15.2346 13.6744 15.3093 13.6251 15.375C13.1939 15.95 11.9451 16.875 10.0001 16.875C8.05511 16.875 6.80636 15.95 6.37511 15.375C6.27565 15.2424 6.23295 15.0757 6.25639 14.9116C6.27983 14.7475 6.3675 14.5995 6.50011 14.5Z" fill="#B28C7E"/>
<path d="M9.99937 0.625C6.93437 0.625 4.57062 1.65875 2.97688 3.38937C1.39125 5.11125 0.625 7.46125 0.625 9.99937C0.625 12.5375 1.39125 14.8869 2.97688 16.6094C4.57062 18.34 6.93437 19.3737 9.99937 19.3737C13.0644 19.3737 15.4281 18.34 17.0212 16.6094C18.6069 14.8875 19.3737 12.5375 19.3737 9.99937C19.3737 7.46125 18.6062 5.11125 17.0212 3.38937C15.4275 1.65875 13.0644 0.625 10 0.625M1.875 9.99937C1.875 7.70562 2.56625 5.68062 3.89688 4.23625C5.21875 2.8 7.23 1.875 9.99937 1.875C12.7687 1.875 14.7794 2.8 16.1019 4.23625C17.4325 5.68062 18.1237 7.705 18.1237 9.99875C18.1237 12.2925 17.4325 14.3175 16.1019 15.7625C14.7794 17.1987 12.7687 18.1237 9.99937 18.1237C7.23 18.1237 5.21938 17.1987 3.89688 15.7625C2.56563 14.3187 1.875 12.2938 1.875 10" fill="#B28C7E"/>
</svg>
