<svg width="20" height="20" viewBox="0 0 20 20" fill="none" xmlns="http://www.w3.org/2000/svg">
<path d="M4.375 9.92486C4.375 8.58736 5.4625 7.49986 6.8 7.49986C8.1375 7.49986 9.225 8.58736 9.225 9.92486C9.225 11.2624 8.1375 12.3499 6.8 12.3499C5.4625 12.3499 4.375 11.2624 4.375 9.92486ZM8.22688 9.96048C8.6925 9.81236 8.8825 9.29173 8.65188 8.79485C8.4225 8.30235 7.86437 8.01611 7.39812 8.16361C6.9325 8.31173 6.7425 8.83236 6.97312 9.32986C7.2025 9.82673 7.76063 10.1086 8.22688 9.96048ZM13.05 7.49986C11.7125 7.49986 10.625 8.58736 10.625 9.92486C10.625 11.2624 11.7125 12.3499 13.05 12.3499C14.3875 12.3499 15.475 11.2624 15.475 9.92486C15.475 8.58736 14.3875 7.49986 13.05 7.49986ZM14.9025 8.79485C15.1325 9.29173 14.9425 9.81236 14.4769 9.96048C14.0113 10.1086 13.4525 9.82673 13.2225 9.32923C12.9925 8.83298 13.1825 8.31173 13.6481 8.16423C14.1087 8.01548 14.6725 8.30235 14.9025 8.79485ZM7.23875 4.37923C7.15713 4.36566 7.07346 4.38502 7.00609 4.43306C6.93872 4.4811 6.89315 4.55389 6.87937 4.63548L6.8775 4.64548L6.86688 4.69235C6.79574 4.96124 6.67398 5.21409 6.50813 5.43735C6.21 5.83423 5.675 6.24986 4.6875 6.24986C4.60462 6.24986 4.52513 6.28278 4.46653 6.34138C4.40792 6.39999 4.375 6.47947 4.375 6.56236C4.375 6.64524 4.40792 6.72472 4.46653 6.78333C4.52513 6.84193 4.60462 6.87486 4.6875 6.87486C5.8875 6.87486 6.60188 6.35298 7.00813 5.81236C7.22395 5.52233 7.38183 5.19341 7.47312 4.84361L7.49375 4.74985L7.495 4.74298V4.74048L7.49563 4.73923C7.50937 4.65751 7.4901 4.57368 7.44205 4.50617C7.39399 4.43866 7.32109 4.393 7.23938 4.37923M13.1225 4.64548L13.1206 4.63548C13.1052 4.55537 13.0591 4.48445 12.9921 4.43788C12.9252 4.39131 12.8426 4.37278 12.7622 4.38624C12.6817 4.39971 12.6097 4.4441 12.5615 4.50994C12.5134 4.57578 12.4929 4.65785 12.5044 4.7386C12.1962 4.78985 12.5044 4.73923 12.5044 4.73923V4.74298L12.5063 4.74923C12.5119 4.78094 12.5188 4.81242 12.5269 4.84361C12.6182 5.19341 12.7761 5.52233 12.9919 5.81236C13.3981 6.35298 14.1125 6.87486 15.3125 6.87486C15.3954 6.87486 15.4749 6.84193 15.5335 6.78333C15.5921 6.72472 15.625 6.64524 15.625 6.56236C15.625 6.47947 15.5921 6.39999 15.5335 6.34138C15.4749 6.28278 15.3954 6.24986 15.3125 6.24986C14.325 6.24986 13.7894 5.83423 13.4919 5.43735C13.326 5.21409 13.2043 4.96124 13.1331 4.69235L13.1225 4.64548ZM9.30062 15.9205C9.22179 16.0629 9.09048 16.169 8.93464 16.2161C8.7788 16.2632 8.61072 16.2477 8.46617 16.1727C8.32163 16.0978 8.21202 15.9695 8.16068 15.815C8.10933 15.6605 8.1203 15.492 8.19125 15.3455V15.3442L8.1925 15.3424L8.19375 15.3399L8.1975 15.333L8.20188 15.3249L8.20625 15.3167C8.2125 15.3042 8.22083 15.2899 8.23125 15.2736C8.25083 15.2399 8.27833 15.1994 8.31375 15.1524C8.38375 15.0586 8.48813 14.9399 8.6325 14.8242C8.93125 14.5855 9.38 14.3749 10 14.3749C10.62 14.3749 11.0688 14.5855 11.3669 14.8249C11.5249 14.951 11.6608 15.1027 11.7687 15.2736L11.7938 15.3167L11.7981 15.3242L11.8025 15.333L11.8062 15.3392L11.8075 15.3424L11.8081 15.3442L11.8087 15.3455L11.8094 15.3461C11.8856 15.4933 11.9003 15.6648 11.8501 15.8228C11.7999 15.9808 11.6891 16.1124 11.5419 16.1886C11.3947 16.2649 11.2232 16.2795 11.0652 16.2293C10.9072 16.1792 10.7756 16.0683 10.6994 15.9211L10.6869 15.9024C10.6573 15.8647 10.6236 15.8305 10.5862 15.8005C10.4937 15.7261 10.3175 15.6249 10 15.6249C9.68312 15.6249 9.50625 15.7261 9.41375 15.7999C9.37087 15.8349 9.33282 15.8754 9.30062 15.9205Z" fill="#B28C7E"/>
<path d="M9.99937 0.625C6.93437 0.625 4.57062 1.65875 2.97688 3.38937C1.39125 5.11125 0.625 7.46125 0.625 9.99937C0.625 12.5375 1.39125 14.8869 2.97688 16.6094C4.57062 18.34 6.93437 19.3737 9.99937 19.3737C13.0644 19.3737 15.4281 18.34 17.0212 16.6094C18.6069 14.8875 19.3737 12.5375 19.3737 9.99937C19.3737 7.46125 18.6062 5.11125 17.0212 3.38937C15.4275 1.65875 13.0644 0.625 10 0.625M1.875 9.99937C1.875 7.70562 2.56625 5.68062 3.89688 4.23625C5.21875 2.8 7.23 1.875 9.99937 1.875C12.7687 1.875 14.7794 2.8 16.1019 4.23625C17.4325 5.68062 18.1237 7.705 18.1237 9.99875C18.1237 12.2925 17.4325 14.3175 16.1019 15.7625C14.7794 17.1987 12.7687 18.1237 9.99937 18.1237C7.23 18.1237 5.21938 17.1987 3.89688 15.7625C2.56563 14.3187 1.875 12.2938 1.875 10" fill="#B28C7E"/>
</svg>
