<svg width="40" height="40" viewBox="0 0 40 40" fill="none" xmlns="http://www.w3.org/2000/svg">
<g clip-path="url(#clip0_148_995)">
<path d="M39.5 20C39.5 9.23045 30.7696 0.5 20 0.5C9.23045 0.5 0.5 9.23045 0.5 20C0.5 30.7696 9.23045 39.5 20 39.5C30.7696 39.5 39.5 30.7696 39.5 20Z" fill="white"/>
<mask id="mask0_148_995" style="mask-type:luminance" maskUnits="userSpaceOnUse" x="10" y="10" width="20" height="20">
<path d="M30 10H10V30H30V10Z" fill="white"/>
</mask>
<g mask="url(#mask0_148_995)">
<path d="M29.6 20.2274C29.6 19.5183 29.5364 18.8365 29.4182 18.1819H20V22.0501H25.3818C25.15 23.3001 24.4455 24.3592 23.3864 25.0683V27.5774H26.6182C28.5091 25.8365 29.6 23.2728 29.6 20.2274Z" fill="#4285F4"/>
<path d="M20 29.9999C22.7 29.9999 24.9636 29.1044 26.6181 27.5772L23.3863 25.0681C22.4909 25.6681 21.3454 26.0226 20 26.0226C17.3954 26.0226 15.1909 24.2635 14.4045 21.8999H11.0636V24.4908C12.7091 27.759 16.0909 29.9999 20 29.9999Z" fill="#34A853"/>
<path d="M14.4045 21.8999C14.2045 21.2999 14.0909 20.659 14.0909 19.9999C14.0909 19.3408 14.2045 18.6999 14.4045 18.0999V15.509H11.0636C10.3864 16.859 10 18.3863 10 19.9999C10 21.6135 10.3864 23.1408 11.0636 24.4908L14.4045 21.8999Z" fill="#FBBC04"/>
<path d="M20 13.9773C21.4681 13.9773 22.7863 14.4818 23.8227 15.4727L26.6909 12.6045C24.9591 10.9909 22.6954 10 20 10C16.0909 10 12.7091 12.2409 11.0636 15.5091L14.4045 18.1C15.1909 15.7364 17.3954 13.9773 20 13.9773Z" fill="#E94235"/>
</g>
<path d="M39.5 20C39.5 9.23045 30.7696 0.5 20 0.5C9.23045 0.5 0.5 9.23045 0.5 20C0.5 30.7696 9.23045 39.5 20 39.5C30.7696 39.5 39.5 30.7696 39.5 20Z" stroke="#747775"/>
</g>
<defs>
<clipPath id="clip0_148_995">
<rect width="40" height="40" fill="white"/>
</clipPath>
</defs>
</svg>
