<svg width="118" height="122" viewBox="0 0 118 122" fill="none" xmlns="http://www.w3.org/2000/svg">
<path d="M16.38 107.85C16.38 105.89 16.772 102.95 17.556 99.03H11.34L9.03 111H0.252L5.586 83.28H14.448L12.012 95.67H18.228L20.538 83.28H29.4C29.008 85.352 28.56 87.55 28.056 89.874L26.628 96.72C25.564 102.04 25.032 105.862 25.032 108.186C25.032 109.138 25.186 109.88 25.494 110.412C24.094 111.364 22.568 111.84 20.916 111.84C19.292 111.84 18.13 111.448 17.43 110.664C16.73 109.88 16.38 108.942 16.38 107.85ZM47.4193 103.902C48.1193 104.378 48.4693 105.148 48.4693 106.212C48.4693 107.248 48.2033 108.102 47.6713 108.774C47.1393 109.446 46.4393 110.006 45.5713 110.454C43.7793 111.378 41.9173 111.84 39.9853 111.84C38.0533 111.84 36.5133 111.63 35.3653 111.21C34.2453 110.79 33.3073 110.188 32.5513 109.404C31.0673 107.92 30.3253 105.82 30.3253 103.104C30.3253 98.876 31.4733 95.474 33.7693 92.898C36.2333 90.126 39.6073 88.74 43.8913 88.74C46.5513 88.74 48.5393 89.3 49.8553 90.42C50.8353 91.26 51.3253 92.366 51.3253 93.738C51.3253 98.666 47.0693 101.13 38.5573 101.13C38.4453 101.858 38.3893 102.53 38.3893 103.146C38.3893 104.434 38.6693 105.33 39.2293 105.834C39.8173 106.31 40.6433 106.548 41.7073 106.548C42.7713 106.548 43.8633 106.31 44.9833 105.834C46.1313 105.33 46.9433 104.686 47.4193 103.902ZM38.8513 99.324C40.8393 99.324 42.4073 98.708 43.5553 97.476C44.7033 96.3 45.2773 94.774 45.2773 92.898C45.2773 92.254 45.1513 91.764 44.8993 91.428C44.6753 91.064 44.3253 90.882 43.8493 90.882C43.3733 90.882 42.9253 90.98 42.5053 91.176C42.1133 91.344 41.7073 91.736 41.2873 92.352C40.2513 93.752 39.4393 96.076 38.8513 99.324ZM66.1188 106.254C64.6628 107.766 62.6048 108.522 59.9448 108.522C56.6128 108.522 54.5968 107.304 53.8968 104.868C53.6728 104.14 53.5608 103.37 53.5608 102.558C53.5608 101.746 53.6448 100.92 53.8128 100.08L55.7868 89.58L64.3128 88.74L62.0028 100.962C61.9468 101.326 61.8768 101.704 61.7928 102.096C61.7088 102.488 61.6668 102.894 61.6668 103.314C61.6668 103.706 61.7368 104.042 61.8768 104.322C62.0168 104.574 62.1848 104.784 62.3808 104.952C62.7168 105.176 63.1788 105.288 63.7668 105.288C64.3828 105.288 64.9428 104.924 65.4468 104.196C65.9788 103.468 66.3708 102.474 66.6228 101.214L68.9328 89.58L77.2068 88.74L74.0568 105.246C73.0208 110.622 71.4388 114.374 69.3108 116.502C68.2188 117.594 66.9588 118.35 65.5308 118.77C64.1308 119.218 62.5208 119.442 60.7008 119.442C57.7608 119.442 55.4508 118.98 53.7708 118.056C52.0908 117.132 51.2508 115.9 51.2508 114.36C51.2508 113.212 51.6848 112.302 52.5528 111.63C53.4208 110.986 54.5268 110.664 55.8708 110.664C57.0468 110.664 58.0828 110.916 58.9788 111.42C59.5108 111.728 59.9028 112.078 60.1548 112.47C59.5108 113.03 59.1888 113.772 59.1888 114.696C59.1888 115.928 59.7488 116.544 60.8688 116.544C62.7168 116.544 64.1728 114.416 65.2368 110.16C65.5448 108.9 65.8388 107.598 66.1188 106.254ZM91.9557 88.74C92.9637 88.74 93.8597 88.852 94.6437 89.076C94.6717 88.964 94.7137 88.754 94.7697 88.446L94.9797 87.144C95.0917 86.584 95.2317 85.842 95.3997 84.918L96.0717 81.6L104.43 80.76L99.7677 105.12C99.7397 105.288 99.7257 105.512 99.7257 105.792V106.464C99.7257 107.08 99.8797 107.626 100.188 108.102C100.496 108.55 100.902 108.774 101.406 108.774C100.846 110.09 99.7117 111.028 98.0037 111.588C97.4157 111.756 96.7017 111.84 95.8617 111.84C95.0497 111.84 94.2657 111.616 93.5097 111.168C92.7537 110.748 92.2637 110.174 92.0397 109.446C91.5917 110.174 90.9197 110.748 90.0237 111.168C89.1277 111.616 88.0217 111.84 86.7057 111.84C85.4177 111.84 84.2277 111.672 83.1357 111.336C82.0717 111 81.2037 110.468 80.5317 109.74C79.2997 108.312 78.6837 105.974 78.6837 102.726C78.6837 98.526 79.9157 95.152 82.3797 92.604C84.8437 90.028 88.0357 88.74 91.9557 88.74ZM91.6617 91.26C90.6257 91.26 89.8277 91.82 89.2677 92.94C88.7077 94.06 88.1337 96.006 87.5457 98.778C86.9857 101.55 86.7057 104.182 86.7057 106.674C86.7057 108.382 87.2097 109.236 88.2177 109.236C89.1137 109.236 89.8697 108.788 90.4857 107.892C91.1297 106.996 91.5777 105.806 91.8297 104.322L94.0977 92.016C93.5097 91.512 92.6977 91.26 91.6617 91.26ZM115.056 108.69C114.188 110.79 112.368 111.84 109.596 111.84C108.168 111.84 107.006 111.35 106.11 110.37C105.354 109.502 104.976 108.634 104.976 107.766C104.976 105.498 105.494 102.152 106.53 97.728L108.084 89.58L116.61 88.74L114.048 102.012C113.572 104.084 113.334 105.484 113.334 106.212C113.334 107.808 113.908 108.634 115.056 108.69ZM108.84 83.742C108.84 82.65 109.288 81.81 110.184 81.222C111.108 80.634 112.228 80.34 113.544 80.34C114.86 80.34 115.91 80.634 116.694 81.222C117.506 81.81 117.912 82.65 117.912 83.742C117.912 84.834 117.464 85.66 116.568 86.22C115.7 86.78 114.608 87.06 113.292 87.06C111.976 87.06 110.898 86.78 110.058 86.22C109.246 85.66 108.84 84.834 108.84 83.742Z" fill="white"/>
<path d="M33 26C33 11.6406 44.6406 0 59 0C73.3594 0 85 11.6406 85 26C85 40.3594 73.3594 52 59 52C54.6023 52 50.4534 50.9061 46.8172 48.9747L36.5509 51.8941C36.0737 52.0294 35.5691 52.0348 35.0892 51.9099C34.6093 51.7849 34.1714 51.5341 33.8208 51.1833C33.4702 50.8325 33.2197 50.3945 33.095 49.9145C32.9702 49.4345 32.9759 48.9299 33.1115 48.4529L36.0309 38.1884C34.0354 34.436 32.9945 30.25 33 26ZM47.8572 20.4286C47.8572 20.9211 48.0528 21.3935 48.4011 21.7418C48.7494 22.09 49.2218 22.2857 49.7143 22.2857H68.2857C68.7783 22.2857 69.2506 22.09 69.5989 21.7418C69.9472 21.3935 70.1429 20.9211 70.1429 20.4286C70.1429 19.936 69.9472 19.4637 69.5989 19.1154C69.2506 18.7671 68.7783 18.5714 68.2857 18.5714H49.7143C49.2218 18.5714 48.7494 18.7671 48.4011 19.1154C48.0528 19.4637 47.8572 19.936 47.8572 20.4286ZM49.7143 29.7143C49.2218 29.7143 48.7494 29.9099 48.4011 30.2582C48.0528 30.6065 47.8572 31.0789 47.8572 31.5714C47.8572 32.064 48.0528 32.5363 48.4011 32.8846C48.7494 33.2329 49.2218 33.4286 49.7143 33.4286H60.8572C61.3497 33.4286 61.8221 33.2329 62.1704 32.8846C62.5186 32.5363 62.7143 32.064 62.7143 31.5714C62.7143 31.0789 62.5186 30.6065 62.1704 30.2582C61.8221 29.9099 61.3497 29.7143 60.8572 29.7143H49.7143Z" fill="white"/>
</svg>
